<?xml version="1.0" encoding="utf-8" standalone="no"?>
<!DOCTYPE svg PUBLIC "-//W3C//DTD SVG 1.1//EN"
  "http://www.w3.org/Graphics/SVG/1.1/DTD/svg11.dtd">
<!-- Created with matplotlib (https://matplotlib.org/) -->
<svg height="345.6pt" version="1.1" viewBox="0 0 518.4 345.6" width="518.4pt" xmlns="http://www.w3.org/2000/svg" xmlns:xlink="http://www.w3.org/1999/xlink">
 <defs>
  <style type="text/css">
*{stroke-linecap:butt;stroke-linejoin:round;}
  </style>
 </defs>
 <g id="figure_1">
  <g id="patch_1">
   <path d="M 0 345.6 
L 518.4 345.6 
L 518.4 0 
L 0 0 
z
" style="fill:#ffffff;"/>
  </g>
  <g id="axes_1">
   <g id="patch_2">
    <path d="M 3.00024 322.550385 
L 515.39976 322.550385 
L 515.39976 21.15774 
L 3.00024 21.15774 
z
" style="fill:#eeeeee;"/>
   </g>
   <g id="matplotlib.axis_1">
    <g id="xtick_1">
     <g id="line2d_1">
      <path clip-path="url(#pd789aeb18e)" d="M 31.780741 322.550385 
L 31.780741 21.15774 
" style="fill:none;stroke:#ffffff;stroke-linecap:round;stroke-width:0.8;"/>
     </g>
     <g id="line2d_2">
      <defs>
       <path d="M 0 0 
L 0 3 
" id="maf1769cd27" style="stroke:#808080;"/>
      </defs>
      <g>
       <use style="fill:#808080;stroke:#808080;" x="31.780741" xlink:href="#maf1769cd27" y="322.550385"/>
      </g>
     </g>
     <g id="text_1">
      <!-- −4 -->
      <defs>
       <path d="M 10.59375 35.5 
L 73.1875 35.5 
L 73.1875 27.203125 
L 10.59375 27.203125 
z
" id="DejaVuSans-8722"/>
       <path d="M 37.796875 64.3125 
L 12.890625 25.390625 
L 37.796875 25.390625 
z
M 35.203125 72.90625 
L 47.609375 72.90625 
L 47.609375 25.390625 
L 58.015625 25.390625 
L 58.015625 17.1875 
L 47.609375 17.1875 
L 47.609375 0 
L 37.796875 0 
L 37.796875 17.1875 
L 4.890625 17.1875 
L 4.890625 26.703125 
z
" id="DejaVuSans-52"/>
      </defs>
      <g style="fill:#262626;" transform="translate(21.461209 339.688197)scale(0.14 -0.14)">
       <use xlink:href="#DejaVuSans-8722"/>
       <use x="83.789062" xlink:href="#DejaVuSans-52"/>
      </g>
     </g>
    </g>
    <g id="xtick_2">
     <g id="line2d_3">
      <path clip-path="url(#pd789aeb18e)" d="M 139.90352 322.550385 
L 139.90352 21.15774 
" style="fill:none;stroke:#ffffff;stroke-linecap:round;stroke-width:0.8;"/>
     </g>
     <g id="line2d_4">
      <g>
       <use style="fill:#808080;stroke:#808080;" x="139.90352" xlink:href="#maf1769cd27" y="322.550385"/>
      </g>
     </g>
     <g id="text_2">
      <!-- −2 -->
      <defs>
       <path d="M 19.1875 8.296875 
L 53.609375 8.296875 
L 53.609375 0 
L 7.328125 0 
L 7.328125 8.296875 
Q 12.9375 14.109375 22.625 23.890625 
Q 32.328125 33.6875 34.8125 36.53125 
Q 39.546875 41.84375 41.421875 45.53125 
Q 43.3125 49.21875 43.3125 52.78125 
Q 43.3125 58.59375 39.234375 62.25 
Q 35.15625 65.921875 28.609375 65.921875 
Q 23.96875 65.921875 18.8125 64.3125 
Q 13.671875 62.703125 7.8125 59.421875 
L 7.8125 69.390625 
Q 13.765625 71.78125 18.9375 73 
Q 24.125 74.21875 28.421875 74.21875 
Q 39.75 74.21875 46.484375 68.546875 
Q 53.21875 62.890625 53.21875 53.421875 
Q 53.21875 48.921875 51.53125 44.890625 
Q 49.859375 40.875 45.40625 35.40625 
Q 44.1875 33.984375 37.640625 27.21875 
Q 31.109375 20.453125 19.1875 8.296875 
z
" id="DejaVuSans-50"/>
      </defs>
      <g style="fill:#262626;" transform="translate(129.583988 339.688197)scale(0.14 -0.14)">
       <use xlink:href="#DejaVuSans-8722"/>
       <use x="83.789062" xlink:href="#DejaVuSans-50"/>
      </g>
     </g>
    </g>
    <g id="xtick_3">
     <g id="line2d_5">
      <path clip-path="url(#pd789aeb18e)" d="M 248.026298 322.550385 
L 248.026298 21.15774 
" style="fill:none;stroke:#ffffff;stroke-linecap:round;stroke-width:0.8;"/>
     </g>
     <g id="line2d_6">
      <g>
       <use style="fill:#808080;stroke:#808080;" x="248.026298" xlink:href="#maf1769cd27" y="322.550385"/>
      </g>
     </g>
     <g id="text_3">
      <!-- 0 -->
      <defs>
       <path d="M 31.78125 66.40625 
Q 24.171875 66.40625 20.328125 58.90625 
Q 16.5 51.421875 16.5 36.375 
Q 16.5 21.390625 20.328125 13.890625 
Q 24.171875 6.390625 31.78125 6.390625 
Q 39.453125 6.390625 43.28125 13.890625 
Q 47.125 21.390625 47.125 36.375 
Q 47.125 51.421875 43.28125 58.90625 
Q 39.453125 66.40625 31.78125 66.40625 
z
M 31.78125 74.21875 
Q 44.046875 74.21875 50.515625 64.515625 
Q 56.984375 54.828125 56.984375 36.375 
Q 56.984375 17.96875 50.515625 8.265625 
Q 44.046875 -1.421875 31.78125 -1.421875 
Q 19.53125 -1.421875 13.0625 8.265625 
Q 6.59375 17.96875 6.59375 36.375 
Q 6.59375 54.828125 13.0625 64.515625 
Q 19.53125 74.21875 31.78125 74.21875 
z
" id="DejaVuSans-48"/>
      </defs>
      <g style="fill:#262626;" transform="translate(243.572548 339.688197)scale(0.14 -0.14)">
       <use xlink:href="#DejaVuSans-48"/>
      </g>
     </g>
    </g>
    <g id="xtick_4">
     <g id="line2d_7">
      <path clip-path="url(#pd789aeb18e)" d="M 356.149077 322.550385 
L 356.149077 21.15774 
" style="fill:none;stroke:#ffffff;stroke-linecap:round;stroke-width:0.8;"/>
     </g>
     <g id="line2d_8">
      <g>
       <use style="fill:#808080;stroke:#808080;" x="356.149077" xlink:href="#maf1769cd27" y="322.550385"/>
      </g>
     </g>
     <g id="text_4">
      <!-- 2 -->
      <g style="fill:#262626;" transform="translate(351.695327 339.688197)scale(0.14 -0.14)">
       <use xlink:href="#DejaVuSans-50"/>
      </g>
     </g>
    </g>
    <g id="xtick_5">
     <g id="line2d_9">
      <path clip-path="url(#pd789aeb18e)" d="M 464.271856 322.550385 
L 464.271856 21.15774 
" style="fill:none;stroke:#ffffff;stroke-linecap:round;stroke-width:0.8;"/>
     </g>
     <g id="line2d_10">
      <g>
       <use style="fill:#808080;stroke:#808080;" x="464.271856" xlink:href="#maf1769cd27" y="322.550385"/>
      </g>
     </g>
     <g id="text_5">
      <!-- 4 -->
      <g style="fill:#262626;" transform="translate(459.818106 339.688197)scale(0.14 -0.14)">
       <use xlink:href="#DejaVuSans-52"/>
      </g>
     </g>
    </g>
   </g>
   <g id="matplotlib.axis_2"/>
   <g id="PolyCollection_1">
    <defs>
     <path d="M 26.291127 -36.749281 
L 26.291127 -36.882943 
L 28.63192 -36.882943 
L 30.972713 -36.886902 
L 33.313505 -36.893736 
L 35.654298 -36.904474 
L 37.995091 -36.921063 
L 40.335883 -36.942644 
L 42.676676 -36.971185 
L 45.017469 -37.006268 
L 47.358261 -37.050287 
L 49.699054 -37.103897 
L 52.039847 -37.169333 
L 54.38064 -37.24704 
L 56.721432 -37.339088 
L 59.062225 -37.447083 
L 61.403018 -37.572837 
L 63.74381 -37.719708 
L 66.084603 -37.886558 
L 68.425396 -38.0773 
L 70.766188 -38.292554 
L 73.106981 -38.535426 
L 75.447774 -38.804936 
L 77.788566 -39.104376 
L 80.129359 -39.435764 
L 82.470152 -39.801814 
L 84.810945 -40.204533 
L 87.151737 -40.655546 
L 89.49253 -41.156368 
L 91.833323 -41.713464 
L 94.174115 -42.336537 
L 96.514908 -43.030155 
L 98.855701 -43.8017 
L 101.196493 -44.660902 
L 103.537286 -45.606011 
L 105.878079 -46.641512 
L 108.218871 -47.77647 
L 110.559664 -49.015811 
L 112.900457 -50.359685 
L 115.24125 -51.810299 
L 117.582042 -53.389705 
L 119.922835 -55.097834 
L 122.263628 -56.948991 
L 124.60442 -58.958068 
L 126.945213 -61.129209 
L 129.286006 -63.47827 
L 131.626798 -66.013621 
L 133.967591 -68.74441 
L 136.308384 -71.669669 
L 138.649176 -74.792804 
L 140.989969 -78.119622 
L 143.330762 -81.657521 
L 145.671554 -85.402415 
L 148.012347 -89.35546 
L 150.35314 -93.523163 
L 152.693933 -97.904283 
L 155.034725 -102.506286 
L 157.375518 -107.325535 
L 159.716311 -112.374355 
L 162.057103 -117.643009 
L 164.397896 -123.140729 
L 166.738689 -128.857379 
L 169.079481 -134.781017 
L 171.420274 -140.903136 
L 173.761067 -147.200925 
L 176.101859 -153.664581 
L 178.442652 -160.272066 
L 180.783445 -166.997997 
L 183.124238 -173.810459 
L 185.46503 -180.700134 
L 187.805823 -187.65233 
L 190.146616 -194.636041 
L 192.487408 -201.633195 
L 194.828201 -208.638562 
L 197.168994 -215.612584 
L 199.509786 -222.538718 
L 201.850579 -229.393891 
L 204.191372 -236.141299 
L 206.532164 -242.757581 
L 208.872957 -249.21207 
L 211.21375 -255.487262 
L 213.554543 -261.528815 
L 215.895335 -267.321074 
L 218.236128 -272.823897 
L 220.576921 -278.025737 
L 222.917713 -282.909357 
L 225.258506 -287.44415 
L 227.599299 -291.616451 
L 229.940091 -295.416378 
L 232.280884 -298.838383 
L 234.621677 -301.852119 
L 236.962469 -304.457807 
L 239.303262 -306.636026 
L 241.644055 -308.367097 
L 243.984848 -309.642866 
L 246.32564 -310.432796 
L 248.666433 -310.742594 
L 251.007226 -310.547744 
L 253.348018 -309.861273 
L 255.688811 -308.696202 
L 258.029604 -307.072846 
L 260.370396 -304.987678 
L 262.711189 -302.468067 
L 265.051982 -299.53428 
L 267.392774 -296.186982 
L 269.733567 -292.453844 
L 272.07436 -288.358391 
L 274.415152 -283.908616 
L 276.755945 -279.132546 
L 279.096738 -274.054304 
L 281.437531 -268.691461 
L 283.778323 -263.080141 
L 286.119116 -257.247006 
L 288.459909 -251.236103 
L 290.800701 -245.044217 
L 293.141494 -238.702198 
L 295.482287 -232.218133 
L 297.823079 -225.608575 
L 300.163872 -218.89646 
L 302.504665 -212.092079 
L 304.845457 -205.209658 
L 307.18625 -198.263885 
L 309.527043 -191.287034 
L 311.867836 -184.289807 
L 314.208628 -177.293804 
L 316.549421 -170.339081 
L 318.890214 -163.436429 
L 321.231006 -156.623194 
L 323.571799 -149.921173 
L 325.912592 -143.374212 
L 328.253384 -137.006884 
L 330.594177 -130.839933 
L 332.93497 -124.895527 
L 335.275762 -119.205369 
L 337.616555 -113.771609 
L 339.957348 -108.606872 
L 342.298141 -103.703224 
L 344.638933 -99.051229 
L 346.979726 -94.648921 
L 349.320519 -90.482208 
L 351.661311 -86.543835 
L 354.002104 -82.821305 
L 356.342897 -79.309563 
L 358.683689 -75.995347 
L 361.024482 -72.873021 
L 363.365275 -69.937744 
L 365.706067 -67.190151 
L 368.04686 -64.621968 
L 370.387653 -62.227608 
L 372.728446 -59.99581 
L 375.069238 -57.922174 
L 377.410031 -55.999459 
L 379.750824 -54.214794 
L 382.091616 -52.566964 
L 384.432409 -51.042873 
L 386.773202 -49.638517 
L 389.113994 -48.350073 
L 391.454787 -47.164695 
L 393.79558 -46.086755 
L 396.136372 -45.110757 
L 398.477165 -44.225466 
L 400.817958 -43.42565 
L 403.15875 -42.70821 
L 405.499543 -42.067331 
L 407.840336 -41.495791 
L 410.181129 -40.98254 
L 412.521921 -40.522408 
L 414.862714 -40.107358 
L 417.203507 -39.73429 
L 419.544299 -39.395513 
L 421.885092 -39.08645 
L 424.225885 -38.806635 
L 426.566677 -38.548994 
L 428.90747 -38.31639 
L 431.248263 -38.104894 
L 433.589055 -37.913926 
L 435.929848 -37.742872 
L 438.270641 -37.592095 
L 440.611434 -37.459825 
L 442.952226 -37.343874 
L 445.293019 -37.24467 
L 447.633812 -37.160734 
L 449.974604 -37.090037 
L 452.315397 -37.030423 
L 454.65619 -36.982079 
L 456.996982 -36.942427 
L 459.337775 -36.90998 
L 461.678568 -36.884131 
L 464.01936 -36.863456 
L 466.360153 -36.846542 
L 468.700946 -36.832666 
L 471.041739 -36.821867 
L 473.382531 -36.812974 
L 475.723324 -36.80626 
L 478.064117 -36.800567 
L 480.404909 -36.796494 
L 482.745702 -36.793507 
L 485.086495 -36.791122 
L 487.427287 -36.789647 
L 489.76808 -36.788926 
L 492.108873 -36.788354 
L 492.108873 -36.749281 
L 492.108873 -36.749281 
L 489.76808 -36.749281 
L 487.427287 -36.749281 
L 485.086495 -36.749281 
L 482.745702 -36.749281 
L 480.404909 -36.749281 
L 478.064117 -36.749281 
L 475.723324 -36.749281 
L 473.382531 -36.749281 
L 471.041739 -36.749281 
L 468.700946 -36.749281 
L 466.360153 -36.749281 
L 464.01936 -36.749281 
L 461.678568 -36.749281 
L 459.337775 -36.749281 
L 456.996982 -36.749281 
L 454.65619 -36.749281 
L 452.315397 -36.749281 
L 449.974604 -36.749281 
L 447.633812 -36.749281 
L 445.293019 -36.749281 
L 442.952226 -36.749281 
L 440.611434 -36.749281 
L 438.270641 -36.749281 
L 435.929848 -36.749281 
L 433.589055 -36.749281 
L 431.248263 -36.749281 
L 428.90747 -36.749281 
L 426.566677 -36.749281 
L 424.225885 -36.749281 
L 421.885092 -36.749281 
L 419.544299 -36.749281 
L 417.203507 -36.749281 
L 414.862714 -36.749281 
L 412.521921 -36.749281 
L 410.181129 -36.749281 
L 407.840336 -36.749281 
L 405.499543 -36.749281 
L 403.15875 -36.749281 
L 400.817958 -36.749281 
L 398.477165 -36.749281 
L 396.136372 -36.749281 
L 393.79558 -36.749281 
L 391.454787 -36.749281 
L 389.113994 -36.749281 
L 386.773202 -36.749281 
L 384.432409 -36.749281 
L 382.091616 -36.749281 
L 379.750824 -36.749281 
L 377.410031 -36.749281 
L 375.069238 -36.749281 
L 372.728446 -36.749281 
L 370.387653 -36.749281 
L 368.04686 -36.749281 
L 365.706067 -36.749281 
L 363.365275 -36.749281 
L 361.024482 -36.749281 
L 358.683689 -36.749281 
L 356.342897 -36.749281 
L 354.002104 -36.749281 
L 351.661311 -36.749281 
L 349.320519 -36.749281 
L 346.979726 -36.749281 
L 344.638933 -36.749281 
L 342.298141 -36.749281 
L 339.957348 -36.749281 
L 337.616555 -36.749281 
L 335.275762 -36.749281 
L 332.93497 -36.749281 
L 330.594177 -36.749281 
L 328.253384 -36.749281 
L 325.912592 -36.749281 
L 323.571799 -36.749281 
L 321.231006 -36.749281 
L 318.890214 -36.749281 
L 316.549421 -36.749281 
L 314.208628 -36.749281 
L 311.867836 -36.749281 
L 309.527043 -36.749281 
L 307.18625 -36.749281 
L 304.845457 -36.749281 
L 302.504665 -36.749281 
L 300.163872 -36.749281 
L 297.823079 -36.749281 
L 295.482287 -36.749281 
L 293.141494 -36.749281 
L 290.800701 -36.749281 
L 288.459909 -36.749281 
L 286.119116 -36.749281 
L 283.778323 -36.749281 
L 281.437531 -36.749281 
L 279.096738 -36.749281 
L 276.755945 -36.749281 
L 274.415152 -36.749281 
L 272.07436 -36.749281 
L 269.733567 -36.749281 
L 267.392774 -36.749281 
L 265.051982 -36.749281 
L 262.711189 -36.749281 
L 260.370396 -36.749281 
L 258.029604 -36.749281 
L 255.688811 -36.749281 
L 253.348018 -36.749281 
L 251.007226 -36.749281 
L 248.666433 -36.749281 
L 246.32564 -36.749281 
L 243.984848 -36.749281 
L 241.644055 -36.749281 
L 239.303262 -36.749281 
L 236.962469 -36.749281 
L 234.621677 -36.749281 
L 232.280884 -36.749281 
L 229.940091 -36.749281 
L 227.599299 -36.749281 
L 225.258506 -36.749281 
L 222.917713 -36.749281 
L 220.576921 -36.749281 
L 218.236128 -36.749281 
L 215.895335 -36.749281 
L 213.554543 -36.749281 
L 211.21375 -36.749281 
L 208.872957 -36.749281 
L 206.532164 -36.749281 
L 204.191372 -36.749281 
L 201.850579 -36.749281 
L 199.509786 -36.749281 
L 197.168994 -36.749281 
L 194.828201 -36.749281 
L 192.487408 -36.749281 
L 190.146616 -36.749281 
L 187.805823 -36.749281 
L 185.46503 -36.749281 
L 183.124238 -36.749281 
L 180.783445 -36.749281 
L 178.442652 -36.749281 
L 176.101859 -36.749281 
L 173.761067 -36.749281 
L 171.420274 -36.749281 
L 169.079481 -36.749281 
L 166.738689 -36.749281 
L 164.397896 -36.749281 
L 162.057103 -36.749281 
L 159.716311 -36.749281 
L 157.375518 -36.749281 
L 155.034725 -36.749281 
L 152.693933 -36.749281 
L 150.35314 -36.749281 
L 148.012347 -36.749281 
L 145.671554 -36.749281 
L 143.330762 -36.749281 
L 140.989969 -36.749281 
L 138.649176 -36.749281 
L 136.308384 -36.749281 
L 133.967591 -36.749281 
L 131.626798 -36.749281 
L 129.286006 -36.749281 
L 126.945213 -36.749281 
L 124.60442 -36.749281 
L 122.263628 -36.749281 
L 119.922835 -36.749281 
L 117.582042 -36.749281 
L 115.24125 -36.749281 
L 112.900457 -36.749281 
L 110.559664 -36.749281 
L 108.218871 -36.749281 
L 105.878079 -36.749281 
L 103.537286 -36.749281 
L 101.196493 -36.749281 
L 98.855701 -36.749281 
L 96.514908 -36.749281 
L 94.174115 -36.749281 
L 91.833323 -36.749281 
L 89.49253 -36.749281 
L 87.151737 -36.749281 
L 84.810945 -36.749281 
L 82.470152 -36.749281 
L 80.129359 -36.749281 
L 77.788566 -36.749281 
L 75.447774 -36.749281 
L 73.106981 -36.749281 
L 70.766188 -36.749281 
L 68.425396 -36.749281 
L 66.084603 -36.749281 
L 63.74381 -36.749281 
L 61.403018 -36.749281 
L 59.062225 -36.749281 
L 56.721432 -36.749281 
L 54.38064 -36.749281 
L 52.039847 -36.749281 
L 49.699054 -36.749281 
L 47.358261 -36.749281 
L 45.017469 -36.749281 
L 42.676676 -36.749281 
L 40.335883 -36.749281 
L 37.995091 -36.749281 
L 35.654298 -36.749281 
L 33.313505 -36.749281 
L 30.972713 -36.749281 
L 28.63192 -36.749281 
L 26.291127 -36.749281 
z
" id="ma93c82754c" style="stroke:#2a2eec;stroke-opacity:0;"/>
    </defs>
    <g clip-path="url(#pd789aeb18e)">
     <use style="fill:#2a2eec;fill-opacity:0;stroke:#2a2eec;stroke-opacity:0;" x="0" xlink:href="#ma93c82754c" y="345.6"/>
    </g>
   </g>
   <g id="line2d_11">
    <path clip-path="url(#pd789aeb18e)" d="M 26.291127 308.717057 
L 42.676676 308.628815 
L 54.38064 308.35296 
L 63.74381 307.880292 
L 70.766188 307.307446 
L 77.788566 306.495624 
L 84.810945 305.395467 
L 89.49253 304.443632 
L 94.174115 303.263463 
L 98.855701 301.7983 
L 103.537286 299.993989 
L 108.218871 297.82353 
L 112.900457 295.240315 
L 117.582042 292.210295 
L 119.922835 290.502166 
L 122.263628 288.651009 
L 124.60442 286.641932 
L 126.945213 284.470791 
L 129.286006 282.12173 
L 131.626798 279.586379 
L 133.967591 276.85559 
L 136.308384 273.930331 
L 138.649176 270.807196 
L 140.989969 267.480378 
L 143.330762 263.942479 
L 148.012347 256.24454 
L 152.693933 247.695717 
L 157.375518 238.274465 
L 162.057103 227.956991 
L 166.738689 216.742621 
L 171.420274 204.696864 
L 176.101859 191.935419 
L 183.124238 171.789541 
L 192.487408 143.966805 
L 201.850579 116.206109 
L 206.532164 102.842419 
L 211.21375 90.112738 
L 215.895335 78.278926 
L 218.236128 72.776103 
L 220.576921 67.574263 
L 222.917713 62.690643 
L 225.258506 58.15585 
L 227.599299 53.983549 
L 229.940091 50.183622 
L 232.280884 46.761617 
L 234.621677 43.747881 
L 236.962469 41.142193 
L 239.303262 38.963974 
L 241.644055 37.232903 
L 243.984848 35.957134 
L 246.32564 35.167204 
L 248.666433 34.857406 
L 251.007226 35.052256 
L 253.348018 35.738727 
L 255.688811 36.903798 
L 258.029604 38.527154 
L 260.370396 40.612322 
L 262.711189 43.131933 
L 265.051982 46.06572 
L 267.392774 49.413018 
L 269.733567 53.146156 
L 272.07436 57.241609 
L 274.415152 61.691384 
L 276.755945 66.467454 
L 279.096738 71.545696 
L 283.778323 82.519859 
L 288.459909 94.363897 
L 293.141494 106.897802 
L 297.823079 119.991425 
L 304.845457 140.390342 
L 323.571799 195.678827 
L 328.253384 208.593116 
L 332.93497 220.704473 
L 337.616555 231.828391 
L 342.298141 241.896776 
L 344.638933 246.548771 
L 349.320519 255.117792 
L 354.002104 262.778695 
L 358.683689 269.604653 
L 361.024482 272.726979 
L 363.365275 275.662256 
L 365.706067 278.409849 
L 368.04686 280.978032 
L 370.387653 283.372392 
L 372.728446 285.60419 
L 375.069238 287.677826 
L 379.750824 291.385206 
L 384.432409 294.557127 
L 389.113994 297.249927 
L 393.79558 299.513245 
L 398.477165 301.374534 
L 403.15875 302.89179 
L 407.840336 304.104209 
L 412.521921 305.077592 
L 417.203507 305.86571 
L 424.225885 306.793365 
L 431.248263 307.495106 
L 438.270641 308.007905 
L 447.633812 308.439266 
L 459.337775 308.69002 
L 478.064117 308.799433 
L 492.108873 308.811646 
L 492.108873 308.811646 
" style="fill:none;stroke:#2a2eec;stroke-linecap:round;stroke-width:1.5;"/>
   </g>
   <g id="line2d_12">
    <path clip-path="url(#pd789aeb18e)" d="M 146.374421 303.09686 
L 349.172912 303.09686 
" style="fill:none;stroke:#000000;stroke-width:3;"/>
   </g>
   <g id="patch_3">
    <path d="M 3.00024 322.550385 
L 515.39976 322.550385 
" style="fill:none;"/>
   </g>
   <g id="text_6">
    <!-- -1.9 -->
    <defs>
     <path d="M 4.890625 31.390625 
L 31.203125 31.390625 
L 31.203125 23.390625 
L 4.890625 23.390625 
z
" id="DejaVuSans-45"/>
     <path d="M 12.40625 8.296875 
L 28.515625 8.296875 
L 28.515625 63.921875 
L 10.984375 60.40625 
L 10.984375 69.390625 
L 28.421875 72.90625 
L 38.28125 72.90625 
L 38.28125 8.296875 
L 54.390625 8.296875 
L 54.390625 0 
L 12.40625 0 
z
" id="DejaVuSans-49"/>
     <path d="M 10.6875 12.40625 
L 21 12.40625 
L 21 0 
L 10.6875 0 
z
" id="DejaVuSans-46"/>
     <path d="M 10.984375 1.515625 
L 10.984375 10.5 
Q 14.703125 8.734375 18.5 7.8125 
Q 22.3125 6.890625 25.984375 6.890625 
Q 35.75 6.890625 40.890625 13.453125 
Q 46.046875 20.015625 46.78125 33.40625 
Q 43.953125 29.203125 39.59375 26.953125 
Q 35.25 24.703125 29.984375 24.703125 
Q 19.046875 24.703125 12.671875 31.3125 
Q 6.296875 37.9375 6.296875 49.421875 
Q 6.296875 60.640625 12.9375 67.421875 
Q 19.578125 74.21875 30.609375 74.21875 
Q 43.265625 74.21875 49.921875 64.515625 
Q 56.59375 54.828125 56.59375 36.375 
Q 56.59375 19.140625 48.40625 8.859375 
Q 40.234375 -1.421875 26.421875 -1.421875 
Q 22.703125 -1.421875 18.890625 -0.6875 
Q 15.09375 0.046875 10.984375 1.515625 
z
M 30.609375 32.421875 
Q 37.25 32.421875 41.125 36.953125 
Q 45.015625 41.5 45.015625 49.421875 
Q 45.015625 57.28125 41.125 61.84375 
Q 37.25 66.40625 30.609375 66.40625 
Q 23.96875 66.40625 20.09375 61.84375 
Q 16.21875 57.28125 16.21875 49.421875 
Q 16.21875 41.5 20.09375 36.953125 
Q 23.96875 32.421875 30.609375 32.421875 
z
" id="DejaVuSans-57"/>
    </defs>
    <g style="fill:#262626;" transform="translate(131.741218 288.712211)scale(0.15 -0.15)">
     <use xlink:href="#DejaVuSans-45"/>
     <use x="36.083984" xlink:href="#DejaVuSans-49"/>
     <use x="99.707031" xlink:href="#DejaVuSans-46"/>
     <use x="131.494141" xlink:href="#DejaVuSans-57"/>
    </g>
   </g>
   <g id="text_7">
    <!-- 1.9 -->
    <g style="fill:#262626;" transform="translate(337.245568 288.712211)scale(0.15 -0.15)">
     <use xlink:href="#DejaVuSans-49"/>
     <use x="63.623047" xlink:href="#DejaVuSans-46"/>
     <use x="95.410156" xlink:href="#DejaVuSans-57"/>
    </g>
   </g>
   <g id="text_8">
    <!-- 94% HPD -->
    <defs>
     <path d="M 72.703125 32.078125 
Q 68.453125 32.078125 66.03125 28.46875 
Q 63.625 24.859375 63.625 18.40625 
Q 63.625 12.0625 66.03125 8.421875 
Q 68.453125 4.78125 72.703125 4.78125 
Q 76.859375 4.78125 79.265625 8.421875 
Q 81.6875 12.0625 81.6875 18.40625 
Q 81.6875 24.8125 79.265625 28.4375 
Q 76.859375 32.078125 72.703125 32.078125 
z
M 72.703125 38.28125 
Q 80.421875 38.28125 84.953125 32.90625 
Q 89.5 27.546875 89.5 18.40625 
Q 89.5 9.28125 84.9375 3.921875 
Q 80.375 -1.421875 72.703125 -1.421875 
Q 64.890625 -1.421875 60.34375 3.921875 
Q 55.8125 9.28125 55.8125 18.40625 
Q 55.8125 27.59375 60.375 32.9375 
Q 64.9375 38.28125 72.703125 38.28125 
z
M 22.3125 68.015625 
Q 18.109375 68.015625 15.6875 64.375 
Q 13.28125 60.75 13.28125 54.390625 
Q 13.28125 47.953125 15.671875 44.328125 
Q 18.0625 40.71875 22.3125 40.71875 
Q 26.5625 40.71875 28.96875 44.328125 
Q 31.390625 47.953125 31.390625 54.390625 
Q 31.390625 60.6875 28.953125 64.34375 
Q 26.515625 68.015625 22.3125 68.015625 
z
M 66.40625 74.21875 
L 74.21875 74.21875 
L 28.609375 -1.421875 
L 20.796875 -1.421875 
z
M 22.3125 74.21875 
Q 30.03125 74.21875 34.609375 68.875 
Q 39.203125 63.53125 39.203125 54.390625 
Q 39.203125 45.171875 34.640625 39.84375 
Q 30.078125 34.515625 22.3125 34.515625 
Q 14.546875 34.515625 10.03125 39.859375 
Q 5.515625 45.21875 5.515625 54.390625 
Q 5.515625 63.484375 10.046875 68.84375 
Q 14.59375 74.21875 22.3125 74.21875 
z
" id="DejaVuSans-37"/>
     <path id="DejaVuSans-32"/>
     <path d="M 9.8125 72.90625 
L 19.671875 72.90625 
L 19.671875 43.015625 
L 55.515625 43.015625 
L 55.515625 72.90625 
L 65.375 72.90625 
L 65.375 0 
L 55.515625 0 
L 55.515625 34.71875 
L 19.671875 34.71875 
L 19.671875 0 
L 9.8125 0 
z
" id="DejaVuSans-72"/>
     <path d="M 19.671875 64.796875 
L 19.671875 37.40625 
L 32.078125 37.40625 
Q 38.96875 37.40625 42.71875 40.96875 
Q 46.484375 44.53125 46.484375 51.125 
Q 46.484375 57.671875 42.71875 61.234375 
Q 38.96875 64.796875 32.078125 64.796875 
z
M 9.8125 72.90625 
L 32.078125 72.90625 
Q 44.34375 72.90625 50.609375 67.359375 
Q 56.890625 61.8125 56.890625 51.125 
Q 56.890625 40.328125 50.609375 34.8125 
Q 44.34375 29.296875 32.078125 29.296875 
L 19.671875 29.296875 
L 19.671875 0 
L 9.8125 0 
z
" id="DejaVuSans-80"/>
     <path d="M 19.671875 64.796875 
L 19.671875 8.109375 
L 31.59375 8.109375 
Q 46.6875 8.109375 53.6875 14.9375 
Q 60.6875 21.78125 60.6875 36.53125 
Q 60.6875 51.171875 53.6875 57.984375 
Q 46.6875 64.796875 31.59375 64.796875 
z
M 9.8125 72.90625 
L 30.078125 72.90625 
Q 51.265625 72.90625 61.171875 64.09375 
Q 71.09375 55.28125 71.09375 36.53125 
Q 71.09375 17.671875 61.125 8.828125 
Q 51.171875 0 30.078125 0 
L 9.8125 0 
z
" id="DejaVuSans-68"/>
    </defs>
    <g style="fill:#262626;" transform="translate(212.782651 222.542826)scale(0.15 -0.15)">
     <use xlink:href="#DejaVuSans-57"/>
     <use x="63.623047" xlink:href="#DejaVuSans-52"/>
     <use x="127.246094" xlink:href="#DejaVuSans-37"/>
     <use x="222.265625" xlink:href="#DejaVuSans-32"/>
     <use x="254.052734" xlink:href="#DejaVuSans-72"/>
     <use x="329.248047" xlink:href="#DejaVuSans-80"/>
     <use x="389.550781" xlink:href="#DejaVuSans-68"/>
    </g>
   </g>
   <g id="text_9">
    <!-- mean=0.00031 -->
    <defs>
     <path d="M 52 44.1875 
Q 55.375 50.25 60.0625 53.125 
Q 64.75 56 71.09375 56 
Q 79.640625 56 84.28125 50.015625 
Q 88.921875 44.046875 88.921875 33.015625 
L 88.921875 0 
L 79.890625 0 
L 79.890625 32.71875 
Q 79.890625 40.578125 77.09375 44.375 
Q 74.3125 48.1875 68.609375 48.1875 
Q 61.625 48.1875 57.5625 43.546875 
Q 53.515625 38.921875 53.515625 30.90625 
L 53.515625 0 
L 44.484375 0 
L 44.484375 32.71875 
Q 44.484375 40.625 41.703125 44.40625 
Q 38.921875 48.1875 33.109375 48.1875 
Q 26.21875 48.1875 22.15625 43.53125 
Q 18.109375 38.875 18.109375 30.90625 
L 18.109375 0 
L 9.078125 0 
L 9.078125 54.6875 
L 18.109375 54.6875 
L 18.109375 46.1875 
Q 21.1875 51.21875 25.484375 53.609375 
Q 29.78125 56 35.6875 56 
Q 41.65625 56 45.828125 52.96875 
Q 50 49.953125 52 44.1875 
z
" id="DejaVuSans-109"/>
     <path d="M 56.203125 29.59375 
L 56.203125 25.203125 
L 14.890625 25.203125 
Q 15.484375 15.921875 20.484375 11.0625 
Q 25.484375 6.203125 34.421875 6.203125 
Q 39.59375 6.203125 44.453125 7.46875 
Q 49.3125 8.734375 54.109375 11.28125 
L 54.109375 2.78125 
Q 49.265625 0.734375 44.1875 -0.34375 
Q 39.109375 -1.421875 33.890625 -1.421875 
Q 20.796875 -1.421875 13.15625 6.1875 
Q 5.515625 13.8125 5.515625 26.8125 
Q 5.515625 40.234375 12.765625 48.109375 
Q 20.015625 56 32.328125 56 
Q 43.359375 56 49.78125 48.890625 
Q 56.203125 41.796875 56.203125 29.59375 
z
M 47.21875 32.234375 
Q 47.125 39.59375 43.09375 43.984375 
Q 39.0625 48.390625 32.421875 48.390625 
Q 24.90625 48.390625 20.390625 44.140625 
Q 15.875 39.890625 15.1875 32.171875 
z
" id="DejaVuSans-101"/>
     <path d="M 34.28125 27.484375 
Q 23.390625 27.484375 19.1875 25 
Q 14.984375 22.515625 14.984375 16.5 
Q 14.984375 11.71875 18.140625 8.90625 
Q 21.296875 6.109375 26.703125 6.109375 
Q 34.1875 6.109375 38.703125 11.40625 
Q 43.21875 16.703125 43.21875 25.484375 
L 43.21875 27.484375 
z
M 52.203125 31.203125 
L 52.203125 0 
L 43.21875 0 
L 43.21875 8.296875 
Q 40.140625 3.328125 35.546875 0.953125 
Q 30.953125 -1.421875 24.3125 -1.421875 
Q 15.921875 -1.421875 10.953125 3.296875 
Q 6 8.015625 6 15.921875 
Q 6 25.140625 12.171875 29.828125 
Q 18.359375 34.515625 30.609375 34.515625 
L 43.21875 34.515625 
L 43.21875 35.40625 
Q 43.21875 41.609375 39.140625 45 
Q 35.0625 48.390625 27.6875 48.390625 
Q 23 48.390625 18.546875 47.265625 
Q 14.109375 46.140625 10.015625 43.890625 
L 10.015625 52.203125 
Q 14.9375 54.109375 19.578125 55.046875 
Q 24.21875 56 28.609375 56 
Q 40.484375 56 46.34375 49.84375 
Q 52.203125 43.703125 52.203125 31.203125 
z
" id="DejaVuSans-97"/>
     <path d="M 54.890625 33.015625 
L 54.890625 0 
L 45.90625 0 
L 45.90625 32.71875 
Q 45.90625 40.484375 42.875 44.328125 
Q 39.84375 48.1875 33.796875 48.1875 
Q 26.515625 48.1875 22.3125 43.546875 
Q 18.109375 38.921875 18.109375 30.90625 
L 18.109375 0 
L 9.078125 0 
L 9.078125 54.6875 
L 18.109375 54.6875 
L 18.109375 46.1875 
Q 21.34375 51.125 25.703125 53.5625 
Q 30.078125 56 35.796875 56 
Q 45.21875 56 50.046875 50.171875 
Q 54.890625 44.34375 54.890625 33.015625 
z
" id="DejaVuSans-110"/>
     <path d="M 10.59375 45.40625 
L 73.1875 45.40625 
L 73.1875 37.203125 
L 10.59375 37.203125 
z
M 10.59375 25.484375 
L 73.1875 25.484375 
L 73.1875 17.1875 
L 10.59375 17.1875 
z
" id="DejaVuSans-61"/>
     <path d="M 40.578125 39.3125 
Q 47.65625 37.796875 51.625 33 
Q 55.609375 28.21875 55.609375 21.1875 
Q 55.609375 10.40625 48.1875 4.484375 
Q 40.765625 -1.421875 27.09375 -1.421875 
Q 22.515625 -1.421875 17.65625 -0.515625 
Q 12.796875 0.390625 7.625 2.203125 
L 7.625 11.71875 
Q 11.71875 9.328125 16.59375 8.109375 
Q 21.484375 6.890625 26.8125 6.890625 
Q 36.078125 6.890625 40.9375 10.546875 
Q 45.796875 14.203125 45.796875 21.1875 
Q 45.796875 27.640625 41.28125 31.265625 
Q 36.765625 34.90625 28.71875 34.90625 
L 20.21875 34.90625 
L 20.21875 43.015625 
L 29.109375 43.015625 
Q 36.375 43.015625 40.234375 45.921875 
Q 44.09375 48.828125 44.09375 54.296875 
Q 44.09375 59.90625 40.109375 62.90625 
Q 36.140625 65.921875 28.71875 65.921875 
Q 24.65625 65.921875 20.015625 65.03125 
Q 15.375 64.15625 9.8125 62.3125 
L 9.8125 71.09375 
Q 15.4375 72.65625 20.34375 73.4375 
Q 25.25 74.21875 29.59375 74.21875 
Q 40.828125 74.21875 47.359375 69.109375 
Q 53.90625 64.015625 53.90625 55.328125 
Q 53.90625 49.265625 50.4375 45.09375 
Q 46.96875 40.921875 40.578125 39.3125 
z
" id="DejaVuSans-51"/>
    </defs>
    <g style="fill:#262626;" transform="translate(189.47415 78.696336)scale(0.15 -0.15)">
     <use xlink:href="#DejaVuSans-109"/>
     <use x="97.412109" xlink:href="#DejaVuSans-101"/>
     <use x="158.935547" xlink:href="#DejaVuSans-97"/>
     <use x="220.214844" xlink:href="#DejaVuSans-110"/>
     <use x="283.59375" xlink:href="#DejaVuSans-61"/>
     <use x="367.382812" xlink:href="#DejaVuSans-48"/>
     <use x="431.005859" xlink:href="#DejaVuSans-46"/>
     <use x="462.792969" xlink:href="#DejaVuSans-48"/>
     <use x="526.416016" xlink:href="#DejaVuSans-48"/>
     <use x="590.039062" xlink:href="#DejaVuSans-48"/>
     <use x="653.662109" xlink:href="#DejaVuSans-51"/>
     <use x="717.285156" xlink:href="#DejaVuSans-49"/>
    </g>
   </g>
   <g id="text_10">
    <!-- x -->
    <defs>
     <path d="M 54.890625 54.6875 
L 35.109375 28.078125 
L 55.90625 0 
L 45.3125 0 
L 29.390625 21.484375 
L 13.484375 0 
L 2.875 0 
L 24.125 28.609375 
L 4.6875 54.6875 
L 15.28125 54.6875 
L 29.78125 35.203125 
L 44.28125 54.6875 
z
" id="DejaVuSans-120"/>
    </defs>
    <g style="fill:#262626;" transform="translate(254.465 15.15774)scale(0.16 -0.16)">
     <use xlink:href="#DejaVuSans-120"/>
    </g>
   </g>
  </g>
 </g>
 <defs>
  <clipPath id="pd789aeb18e">
   <rect height="301.392645" width="512.39952" x="3.00024" y="21.15774"/>
  </clipPath>
 </defs>
</svg>
