<?xml version="1.0" encoding="utf-8" standalone="no"?>
<!DOCTYPE svg PUBLIC "-//W3C//DTD SVG 1.1//EN"
  "http://www.w3.org/Graphics/SVG/1.1/DTD/svg11.dtd">
<!-- Created with matplotlib (https://matplotlib.org/) -->
<svg height="792pt" version="1.1" viewBox="0 0 432 792" width="432pt" xmlns="http://www.w3.org/2000/svg" xmlns:xlink="http://www.w3.org/1999/xlink">
 <defs>
  <style type="text/css">
*{stroke-linecap:butt;stroke-linejoin:round;}
  </style>
 </defs>
 <g id="figure_1">
  <g id="patch_1">
   <path d="M 0 792 
L 432 792 
L 432 0 
L 0 0 
z
" style="fill:#ffffff;"/>
  </g>
  <g id="axes_1">
   <g id="patch_2">
    <path d="M 89.058678 771.950385 
L 428.99976 771.950385 
L 428.99976 21.15774 
L 89.058678 21.15774 
z
" style="fill:#eeeeee;"/>
   </g>
   <g id="matplotlib.axis_1">
    <g id="xtick_1">
     <g id="line2d_1">
      <path clip-path="url(#pd7acb06c52)" d="M 139.6387 771.950385 
L 139.6387 21.15774 
" style="fill:none;stroke:#ffffff;stroke-linecap:round;stroke-width:0.8;"/>
     </g>
     <g id="line2d_2"/>
     <g id="text_1">
      <!-- −2 -->
      <defs>
       <path d="M 10.59375 35.5 
L 73.1875 35.5 
L 73.1875 27.203125 
L 10.59375 27.203125 
z
" id="DejaVuSans-8722"/>
       <path d="M 19.1875 8.296875 
L 53.609375 8.296875 
L 53.609375 0 
L 7.328125 0 
L 7.328125 8.296875 
Q 12.9375 14.109375 22.625 23.890625 
Q 32.328125 33.6875 34.8125 36.53125 
Q 39.546875 41.84375 41.421875 45.53125 
Q 43.3125 49.21875 43.3125 52.78125 
Q 43.3125 58.59375 39.234375 62.25 
Q 35.15625 65.921875 28.609375 65.921875 
Q 23.96875 65.921875 18.8125 64.3125 
Q 13.671875 62.703125 7.8125 59.421875 
L 7.8125 69.390625 
Q 13.765625 71.78125 18.9375 73 
Q 24.125 74.21875 28.421875 74.21875 
Q 39.75 74.21875 46.484375 68.546875 
Q 53.21875 62.890625 53.21875 53.421875 
Q 53.21875 48.921875 51.53125 44.890625 
Q 49.859375 40.875 45.40625 35.40625 
Q 44.1875 33.984375 37.640625 27.21875 
Q 31.109375 20.453125 19.1875 8.296875 
z
" id="DejaVuSans-50"/>
      </defs>
      <g style="fill:#262626;" transform="translate(129.319169 786.088197)scale(0.14 -0.14)">
       <use xlink:href="#DejaVuSans-8722"/>
       <use x="83.789062" xlink:href="#DejaVuSans-50"/>
      </g>
     </g>
    </g>
    <g id="xtick_2">
     <g id="line2d_3">
      <path clip-path="url(#pd7acb06c52)" d="M 220.855291 771.950385 
L 220.855291 21.15774 
" style="fill:none;stroke:#ffffff;stroke-linecap:round;stroke-width:0.8;"/>
     </g>
     <g id="line2d_4"/>
     <g id="text_2">
      <!-- 0 -->
      <defs>
       <path d="M 31.78125 66.40625 
Q 24.171875 66.40625 20.328125 58.90625 
Q 16.5 51.421875 16.5 36.375 
Q 16.5 21.390625 20.328125 13.890625 
Q 24.171875 6.390625 31.78125 6.390625 
Q 39.453125 6.390625 43.28125 13.890625 
Q 47.125 21.390625 47.125 36.375 
Q 47.125 51.421875 43.28125 58.90625 
Q 39.453125 66.40625 31.78125 66.40625 
z
M 31.78125 74.21875 
Q 44.046875 74.21875 50.515625 64.515625 
Q 56.984375 54.828125 56.984375 36.375 
Q 56.984375 17.96875 50.515625 8.265625 
Q 44.046875 -1.421875 31.78125 -1.421875 
Q 19.53125 -1.421875 13.0625 8.265625 
Q 6.59375 17.96875 6.59375 36.375 
Q 6.59375 54.828125 13.0625 64.515625 
Q 19.53125 74.21875 31.78125 74.21875 
z
" id="DejaVuSans-48"/>
      </defs>
      <g style="fill:#262626;" transform="translate(216.401541 786.088197)scale(0.14 -0.14)">
       <use xlink:href="#DejaVuSans-48"/>
      </g>
     </g>
    </g>
    <g id="xtick_3">
     <g id="line2d_5">
      <path clip-path="url(#pd7acb06c52)" d="M 302.071882 771.950385 
L 302.071882 21.15774 
" style="fill:none;stroke:#ffffff;stroke-linecap:round;stroke-width:0.8;"/>
     </g>
     <g id="line2d_6"/>
     <g id="text_3">
      <!-- 2 -->
      <g style="fill:#262626;" transform="translate(297.618132 786.088197)scale(0.14 -0.14)">
       <use xlink:href="#DejaVuSans-50"/>
      </g>
     </g>
    </g>
    <g id="xtick_4">
     <g id="line2d_7">
      <path clip-path="url(#pd7acb06c52)" d="M 383.288473 771.950385 
L 383.288473 21.15774 
" style="fill:none;stroke:#ffffff;stroke-linecap:round;stroke-width:0.8;"/>
     </g>
     <g id="line2d_8"/>
     <g id="text_4">
      <!-- 4 -->
      <defs>
       <path d="M 37.796875 64.3125 
L 12.890625 25.390625 
L 37.796875 25.390625 
z
M 35.203125 72.90625 
L 47.609375 72.90625 
L 47.609375 25.390625 
L 58.015625 25.390625 
L 58.015625 17.1875 
L 47.609375 17.1875 
L 47.609375 0 
L 37.796875 0 
L 37.796875 17.1875 
L 4.890625 17.1875 
L 4.890625 26.703125 
z
" id="DejaVuSans-52"/>
      </defs>
      <g style="fill:#262626;" transform="translate(378.834723 786.088197)scale(0.14 -0.14)">
       <use xlink:href="#DejaVuSans-52"/>
      </g>
     </g>
    </g>
   </g>
   <g id="matplotlib.axis_2">
    <g id="ytick_1">
     <g id="text_5">
      <!-- exponential -->
      <defs>
       <path d="M 56.203125 29.59375 
L 56.203125 25.203125 
L 14.890625 25.203125 
Q 15.484375 15.921875 20.484375 11.0625 
Q 25.484375 6.203125 34.421875 6.203125 
Q 39.59375 6.203125 44.453125 7.46875 
Q 49.3125 8.734375 54.109375 11.28125 
L 54.109375 2.78125 
Q 49.265625 0.734375 44.1875 -0.34375 
Q 39.109375 -1.421875 33.890625 -1.421875 
Q 20.796875 -1.421875 13.15625 6.1875 
Q 5.515625 13.8125 5.515625 26.8125 
Q 5.515625 40.234375 12.765625 48.109375 
Q 20.015625 56 32.328125 56 
Q 43.359375 56 49.78125 48.890625 
Q 56.203125 41.796875 56.203125 29.59375 
z
M 47.21875 32.234375 
Q 47.125 39.59375 43.09375 43.984375 
Q 39.0625 48.390625 32.421875 48.390625 
Q 24.90625 48.390625 20.390625 44.140625 
Q 15.875 39.890625 15.1875 32.171875 
z
" id="DejaVuSans-101"/>
       <path d="M 54.890625 54.6875 
L 35.109375 28.078125 
L 55.90625 0 
L 45.3125 0 
L 29.390625 21.484375 
L 13.484375 0 
L 2.875 0 
L 24.125 28.609375 
L 4.6875 54.6875 
L 15.28125 54.6875 
L 29.78125 35.203125 
L 44.28125 54.6875 
z
" id="DejaVuSans-120"/>
       <path d="M 18.109375 8.203125 
L 18.109375 -20.796875 
L 9.078125 -20.796875 
L 9.078125 54.6875 
L 18.109375 54.6875 
L 18.109375 46.390625 
Q 20.953125 51.265625 25.265625 53.625 
Q 29.59375 56 35.59375 56 
Q 45.5625 56 51.78125 48.09375 
Q 58.015625 40.1875 58.015625 27.296875 
Q 58.015625 14.40625 51.78125 6.484375 
Q 45.5625 -1.421875 35.59375 -1.421875 
Q 29.59375 -1.421875 25.265625 0.953125 
Q 20.953125 3.328125 18.109375 8.203125 
z
M 48.6875 27.296875 
Q 48.6875 37.203125 44.609375 42.84375 
Q 40.53125 48.484375 33.40625 48.484375 
Q 26.265625 48.484375 22.1875 42.84375 
Q 18.109375 37.203125 18.109375 27.296875 
Q 18.109375 17.390625 22.1875 11.75 
Q 26.265625 6.109375 33.40625 6.109375 
Q 40.53125 6.109375 44.609375 11.75 
Q 48.6875 17.390625 48.6875 27.296875 
z
" id="DejaVuSans-112"/>
       <path d="M 30.609375 48.390625 
Q 23.390625 48.390625 19.1875 42.75 
Q 14.984375 37.109375 14.984375 27.296875 
Q 14.984375 17.484375 19.15625 11.84375 
Q 23.34375 6.203125 30.609375 6.203125 
Q 37.796875 6.203125 41.984375 11.859375 
Q 46.1875 17.53125 46.1875 27.296875 
Q 46.1875 37.015625 41.984375 42.703125 
Q 37.796875 48.390625 30.609375 48.390625 
z
M 30.609375 56 
Q 42.328125 56 49.015625 48.375 
Q 55.71875 40.765625 55.71875 27.296875 
Q 55.71875 13.875 49.015625 6.21875 
Q 42.328125 -1.421875 30.609375 -1.421875 
Q 18.84375 -1.421875 12.171875 6.21875 
Q 5.515625 13.875 5.515625 27.296875 
Q 5.515625 40.765625 12.171875 48.375 
Q 18.84375 56 30.609375 56 
z
" id="DejaVuSans-111"/>
       <path d="M 54.890625 33.015625 
L 54.890625 0 
L 45.90625 0 
L 45.90625 32.71875 
Q 45.90625 40.484375 42.875 44.328125 
Q 39.84375 48.1875 33.796875 48.1875 
Q 26.515625 48.1875 22.3125 43.546875 
Q 18.109375 38.921875 18.109375 30.90625 
L 18.109375 0 
L 9.078125 0 
L 9.078125 54.6875 
L 18.109375 54.6875 
L 18.109375 46.1875 
Q 21.34375 51.125 25.703125 53.5625 
Q 30.078125 56 35.796875 56 
Q 45.21875 56 50.046875 50.171875 
Q 54.890625 44.34375 54.890625 33.015625 
z
" id="DejaVuSans-110"/>
       <path d="M 18.3125 70.21875 
L 18.3125 54.6875 
L 36.8125 54.6875 
L 36.8125 47.703125 
L 18.3125 47.703125 
L 18.3125 18.015625 
Q 18.3125 11.328125 20.140625 9.421875 
Q 21.96875 7.515625 27.59375 7.515625 
L 36.8125 7.515625 
L 36.8125 0 
L 27.59375 0 
Q 17.1875 0 13.234375 3.875 
Q 9.28125 7.765625 9.28125 18.015625 
L 9.28125 47.703125 
L 2.6875 47.703125 
L 2.6875 54.6875 
L 9.28125 54.6875 
L 9.28125 70.21875 
z
" id="DejaVuSans-116"/>
       <path d="M 9.421875 54.6875 
L 18.40625 54.6875 
L 18.40625 0 
L 9.421875 0 
z
M 9.421875 75.984375 
L 18.40625 75.984375 
L 18.40625 64.59375 
L 9.421875 64.59375 
z
" id="DejaVuSans-105"/>
       <path d="M 34.28125 27.484375 
Q 23.390625 27.484375 19.1875 25 
Q 14.984375 22.515625 14.984375 16.5 
Q 14.984375 11.71875 18.140625 8.90625 
Q 21.296875 6.109375 26.703125 6.109375 
Q 34.1875 6.109375 38.703125 11.40625 
Q 43.21875 16.703125 43.21875 25.484375 
L 43.21875 27.484375 
z
M 52.203125 31.203125 
L 52.203125 0 
L 43.21875 0 
L 43.21875 8.296875 
Q 40.140625 3.328125 35.546875 0.953125 
Q 30.953125 -1.421875 24.3125 -1.421875 
Q 15.921875 -1.421875 10.953125 3.296875 
Q 6 8.015625 6 15.921875 
Q 6 25.140625 12.171875 29.828125 
Q 18.359375 34.515625 30.609375 34.515625 
L 43.21875 34.515625 
L 43.21875 35.40625 
Q 43.21875 41.609375 39.140625 45 
Q 35.0625 48.390625 27.6875 48.390625 
Q 23 48.390625 18.546875 47.265625 
Q 14.109375 46.140625 10.015625 43.890625 
L 10.015625 52.203125 
Q 14.9375 54.109375 19.578125 55.046875 
Q 24.21875 56 28.609375 56 
Q 40.484375 56 46.34375 49.84375 
Q 52.203125 43.703125 52.203125 31.203125 
z
" id="DejaVuSans-97"/>
       <path d="M 9.421875 75.984375 
L 18.40625 75.984375 
L 18.40625 0 
L 9.421875 0 
z
" id="DejaVuSans-108"/>
      </defs>
      <g style="fill:#262626;" transform="translate(3.00024 683.420211)scale(0.14 -0.14)">
       <use xlink:href="#DejaVuSans-101"/>
       <use x="61.507812" xlink:href="#DejaVuSans-120"/>
       <use x="120.6875" xlink:href="#DejaVuSans-112"/>
       <use x="184.164062" xlink:href="#DejaVuSans-111"/>
       <use x="245.345703" xlink:href="#DejaVuSans-110"/>
       <use x="308.724609" xlink:href="#DejaVuSans-101"/>
       <use x="370.248047" xlink:href="#DejaVuSans-110"/>
       <use x="433.626953" xlink:href="#DejaVuSans-116"/>
       <use x="472.835938" xlink:href="#DejaVuSans-105"/>
       <use x="500.619141" xlink:href="#DejaVuSans-97"/>
       <use x="561.898438" xlink:href="#DejaVuSans-108"/>
      </g>
     </g>
    </g>
    <g id="ytick_2">
     <g id="text_6">
      <!-- student t -->
      <defs>
       <path d="M 44.28125 53.078125 
L 44.28125 44.578125 
Q 40.484375 46.53125 36.375 47.5 
Q 32.28125 48.484375 27.875 48.484375 
Q 21.1875 48.484375 17.84375 46.4375 
Q 14.5 44.390625 14.5 40.28125 
Q 14.5 37.15625 16.890625 35.375 
Q 19.28125 33.59375 26.515625 31.984375 
L 29.59375 31.296875 
Q 39.15625 29.25 43.1875 25.515625 
Q 47.21875 21.78125 47.21875 15.09375 
Q 47.21875 7.46875 41.1875 3.015625 
Q 35.15625 -1.421875 24.609375 -1.421875 
Q 20.21875 -1.421875 15.453125 -0.5625 
Q 10.6875 0.296875 5.421875 2 
L 5.421875 11.28125 
Q 10.40625 8.6875 15.234375 7.390625 
Q 20.0625 6.109375 24.8125 6.109375 
Q 31.15625 6.109375 34.5625 8.28125 
Q 37.984375 10.453125 37.984375 14.40625 
Q 37.984375 18.0625 35.515625 20.015625 
Q 33.0625 21.96875 24.703125 23.78125 
L 21.578125 24.515625 
Q 13.234375 26.265625 9.515625 29.90625 
Q 5.8125 33.546875 5.8125 39.890625 
Q 5.8125 47.609375 11.28125 51.796875 
Q 16.75 56 26.8125 56 
Q 31.78125 56 36.171875 55.265625 
Q 40.578125 54.546875 44.28125 53.078125 
z
" id="DejaVuSans-115"/>
       <path d="M 8.5 21.578125 
L 8.5 54.6875 
L 17.484375 54.6875 
L 17.484375 21.921875 
Q 17.484375 14.15625 20.5 10.265625 
Q 23.53125 6.390625 29.59375 6.390625 
Q 36.859375 6.390625 41.078125 11.03125 
Q 45.3125 15.671875 45.3125 23.6875 
L 45.3125 54.6875 
L 54.296875 54.6875 
L 54.296875 0 
L 45.3125 0 
L 45.3125 8.40625 
Q 42.046875 3.421875 37.71875 1 
Q 33.40625 -1.421875 27.6875 -1.421875 
Q 18.265625 -1.421875 13.375 4.4375 
Q 8.5 10.296875 8.5 21.578125 
z
M 31.109375 56 
z
" id="DejaVuSans-117"/>
       <path d="M 45.40625 46.390625 
L 45.40625 75.984375 
L 54.390625 75.984375 
L 54.390625 0 
L 45.40625 0 
L 45.40625 8.203125 
Q 42.578125 3.328125 38.25 0.953125 
Q 33.9375 -1.421875 27.875 -1.421875 
Q 17.96875 -1.421875 11.734375 6.484375 
Q 5.515625 14.40625 5.515625 27.296875 
Q 5.515625 40.1875 11.734375 48.09375 
Q 17.96875 56 27.875 56 
Q 33.9375 56 38.25 53.625 
Q 42.578125 51.265625 45.40625 46.390625 
z
M 14.796875 27.296875 
Q 14.796875 17.390625 18.875 11.75 
Q 22.953125 6.109375 30.078125 6.109375 
Q 37.203125 6.109375 41.296875 11.75 
Q 45.40625 17.390625 45.40625 27.296875 
Q 45.40625 37.203125 41.296875 42.84375 
Q 37.203125 48.484375 30.078125 48.484375 
Q 22.953125 48.484375 18.875 42.84375 
Q 14.796875 37.203125 14.796875 27.296875 
z
" id="DejaVuSans-100"/>
       <path id="DejaVuSans-32"/>
      </defs>
      <g style="fill:#262626;" transform="translate(22.103678 495.722049)scale(0.14 -0.14)">
       <use xlink:href="#DejaVuSans-115"/>
       <use x="52.099609" xlink:href="#DejaVuSans-116"/>
       <use x="91.308594" xlink:href="#DejaVuSans-117"/>
       <use x="154.6875" xlink:href="#DejaVuSans-100"/>
       <use x="218.164062" xlink:href="#DejaVuSans-101"/>
       <use x="279.6875" xlink:href="#DejaVuSans-110"/>
       <use x="343.066406" xlink:href="#DejaVuSans-116"/>
       <use x="382.275391" xlink:href="#DejaVuSans-32"/>
       <use x="414.0625" xlink:href="#DejaVuSans-116"/>
      </g>
     </g>
    </g>
    <g id="ytick_3">
     <g id="text_7">
      <!-- gumbel -->
      <defs>
       <path d="M 45.40625 27.984375 
Q 45.40625 37.75 41.375 43.109375 
Q 37.359375 48.484375 30.078125 48.484375 
Q 22.859375 48.484375 18.828125 43.109375 
Q 14.796875 37.75 14.796875 27.984375 
Q 14.796875 18.265625 18.828125 12.890625 
Q 22.859375 7.515625 30.078125 7.515625 
Q 37.359375 7.515625 41.375 12.890625 
Q 45.40625 18.265625 45.40625 27.984375 
z
M 54.390625 6.78125 
Q 54.390625 -7.171875 48.1875 -13.984375 
Q 42 -20.796875 29.203125 -20.796875 
Q 24.46875 -20.796875 20.265625 -20.09375 
Q 16.0625 -19.390625 12.109375 -17.921875 
L 12.109375 -9.1875 
Q 16.0625 -11.328125 19.921875 -12.34375 
Q 23.78125 -13.375 27.78125 -13.375 
Q 36.625 -13.375 41.015625 -8.765625 
Q 45.40625 -4.15625 45.40625 5.171875 
L 45.40625 9.625 
Q 42.625 4.78125 38.28125 2.390625 
Q 33.9375 0 27.875 0 
Q 17.828125 0 11.671875 7.65625 
Q 5.515625 15.328125 5.515625 27.984375 
Q 5.515625 40.671875 11.671875 48.328125 
Q 17.828125 56 27.875 56 
Q 33.9375 56 38.28125 53.609375 
Q 42.625 51.21875 45.40625 46.390625 
L 45.40625 54.6875 
L 54.390625 54.6875 
z
" id="DejaVuSans-103"/>
       <path d="M 52 44.1875 
Q 55.375 50.25 60.0625 53.125 
Q 64.75 56 71.09375 56 
Q 79.640625 56 84.28125 50.015625 
Q 88.921875 44.046875 88.921875 33.015625 
L 88.921875 0 
L 79.890625 0 
L 79.890625 32.71875 
Q 79.890625 40.578125 77.09375 44.375 
Q 74.3125 48.1875 68.609375 48.1875 
Q 61.625 48.1875 57.5625 43.546875 
Q 53.515625 38.921875 53.515625 30.90625 
L 53.515625 0 
L 44.484375 0 
L 44.484375 32.71875 
Q 44.484375 40.625 41.703125 44.40625 
Q 38.921875 48.1875 33.109375 48.1875 
Q 26.21875 48.1875 22.15625 43.53125 
Q 18.109375 38.875 18.109375 30.90625 
L 18.109375 0 
L 9.078125 0 
L 9.078125 54.6875 
L 18.109375 54.6875 
L 18.109375 46.1875 
Q 21.1875 51.21875 25.484375 53.609375 
Q 29.78125 56 35.6875 56 
Q 41.65625 56 45.828125 52.96875 
Q 50 49.953125 52 44.1875 
z
" id="DejaVuSans-109"/>
       <path d="M 48.6875 27.296875 
Q 48.6875 37.203125 44.609375 42.84375 
Q 40.53125 48.484375 33.40625 48.484375 
Q 26.265625 48.484375 22.1875 42.84375 
Q 18.109375 37.203125 18.109375 27.296875 
Q 18.109375 17.390625 22.1875 11.75 
Q 26.265625 6.109375 33.40625 6.109375 
Q 40.53125 6.109375 44.609375 11.75 
Q 48.6875 17.390625 48.6875 27.296875 
z
M 18.109375 46.390625 
Q 20.953125 51.265625 25.265625 53.625 
Q 29.59375 56 35.59375 56 
Q 45.5625 56 51.78125 48.09375 
Q 58.015625 40.1875 58.015625 27.296875 
Q 58.015625 14.40625 51.78125 6.484375 
Q 45.5625 -1.421875 35.59375 -1.421875 
Q 29.59375 -1.421875 25.265625 0.953125 
Q 20.953125 3.328125 18.109375 8.203125 
L 18.109375 0 
L 9.078125 0 
L 9.078125 75.984375 
L 18.109375 75.984375 
z
" id="DejaVuSans-98"/>
      </defs>
      <g style="fill:#262626;" transform="translate(32.769928 308.023888)scale(0.14 -0.14)">
       <use xlink:href="#DejaVuSans-103"/>
       <use x="63.476562" xlink:href="#DejaVuSans-117"/>
       <use x="126.855469" xlink:href="#DejaVuSans-109"/>
       <use x="224.267578" xlink:href="#DejaVuSans-98"/>
       <use x="287.744141" xlink:href="#DejaVuSans-101"/>
       <use x="349.267578" xlink:href="#DejaVuSans-108"/>
      </g>
     </g>
    </g>
    <g id="ytick_4">
     <g id="text_8">
      <!-- normal -->
      <defs>
       <path d="M 41.109375 46.296875 
Q 39.59375 47.171875 37.8125 47.578125 
Q 36.03125 48 33.890625 48 
Q 26.265625 48 22.1875 43.046875 
Q 18.109375 38.09375 18.109375 28.8125 
L 18.109375 0 
L 9.078125 0 
L 9.078125 54.6875 
L 18.109375 54.6875 
L 18.109375 46.1875 
Q 20.953125 51.171875 25.484375 53.578125 
Q 30.03125 56 36.53125 56 
Q 37.453125 56 38.578125 55.875 
Q 39.703125 55.765625 41.0625 55.515625 
z
" id="DejaVuSans-114"/>
      </defs>
      <g style="fill:#262626;" transform="translate(36.261178 120.325727)scale(0.14 -0.14)">
       <use xlink:href="#DejaVuSans-110"/>
       <use x="63.378906" xlink:href="#DejaVuSans-111"/>
       <use x="124.560547" xlink:href="#DejaVuSans-114"/>
       <use x="165.658203" xlink:href="#DejaVuSans-109"/>
       <use x="263.070312" xlink:href="#DejaVuSans-97"/>
       <use x="324.349609" xlink:href="#DejaVuSans-108"/>
      </g>
     </g>
    </g>
   </g>
   <g id="LineCollection_1">
    <path clip-path="url(#pd7acb06c52)" d="M 221.465615 734.410753 
L 333.313701 734.410753 
" style="fill:none;stroke:#2a2eec;stroke-width:1.5;"/>
   </g>
   <g id="LineCollection_2">
    <path clip-path="url(#pd7acb06c52)" d="M 240.663896 734.410753 
L 282.726173 734.410753 
" style="fill:none;stroke:#2a2eec;stroke-width:3;"/>
   </g>
   <g id="LineCollection_3">
    <path clip-path="url(#pd7acb06c52)" d="M 221.462387 721.897542 
L 302.305165 721.897542 
" style="fill:none;stroke:#2a2eec;stroke-width:1.5;"/>
   </g>
   <g id="LineCollection_4">
    <path clip-path="url(#pd7acb06c52)" d="M 230.525419 721.897542 
L 266.942478 721.897542 
" style="fill:none;stroke:#2a2eec;stroke-width:3;"/>
   </g>
   <g id="LineCollection_5">
    <path clip-path="url(#pd7acb06c52)" d="M 222.101696 709.384331 
L 358.899937 709.384331 
" style="fill:none;stroke:#2a2eec;stroke-width:1.5;"/>
   </g>
   <g id="LineCollection_6">
    <path clip-path="url(#pd7acb06c52)" d="M 230.780726 709.384331 
L 260.888246 709.384331 
" style="fill:none;stroke:#2a2eec;stroke-width:3;"/>
   </g>
   <g id="LineCollection_7">
    <path clip-path="url(#pd7acb06c52)" d="M 222.87949 696.87112 
L 351.889917 696.87112 
" style="fill:none;stroke:#2a2eec;stroke-width:1.5;"/>
   </g>
   <g id="LineCollection_8">
    <path clip-path="url(#pd7acb06c52)" d="M 247.79102 696.87112 
L 285.115887 696.87112 
" style="fill:none;stroke:#2a2eec;stroke-width:3;"/>
   </g>
   <g id="LineCollection_9">
    <path clip-path="url(#pd7acb06c52)" d="M 221.30199 684.35791 
L 318.24961 684.35791 
" style="fill:none;stroke:#2a2eec;stroke-width:1.5;"/>
   </g>
   <g id="LineCollection_10">
    <path clip-path="url(#pd7acb06c52)" d="M 233.048502 684.35791 
L 268.448759 684.35791 
" style="fill:none;stroke:#2a2eec;stroke-width:3;"/>
   </g>
   <g id="LineCollection_11">
    <path clip-path="url(#pd7acb06c52)" d="M 221.839944 671.844699 
L 335.265499 671.844699 
" style="fill:none;stroke:#2a2eec;stroke-width:1.5;"/>
   </g>
   <g id="LineCollection_12">
    <path clip-path="url(#pd7acb06c52)" d="M 231.694808 671.844699 
L 268.152411 671.844699 
" style="fill:none;stroke:#2a2eec;stroke-width:3;"/>
   </g>
   <g id="LineCollection_13">
    <path clip-path="url(#pd7acb06c52)" d="M 221.091474 659.331488 
L 327.767987 659.331488 
" style="fill:none;stroke:#2a2eec;stroke-width:1.5;"/>
   </g>
   <g id="LineCollection_14">
    <path clip-path="url(#pd7acb06c52)" d="M 231.981599 659.331488 
L 268.331001 659.331488 
" style="fill:none;stroke:#2a2eec;stroke-width:3;"/>
   </g>
   <g id="LineCollection_15">
    <path clip-path="url(#pd7acb06c52)" d="M 221.291321 646.818278 
L 362.322139 646.818278 
" style="fill:none;stroke:#2a2eec;stroke-width:1.5;"/>
   </g>
   <g id="LineCollection_16">
    <path clip-path="url(#pd7acb06c52)" d="M 235.15804 646.818278 
L 288.636019 646.818278 
" style="fill:none;stroke:#2a2eec;stroke-width:3;"/>
   </g>
   <g id="LineCollection_17">
    <path clip-path="url(#pd7acb06c52)" d="M 220.975934 634.305067 
L 335.443857 634.305067 
" style="fill:none;stroke:#2a2eec;stroke-width:1.5;"/>
   </g>
   <g id="LineCollection_18">
    <path clip-path="url(#pd7acb06c52)" d="M 228.641286 634.305067 
L 261.164959 634.305067 
" style="fill:none;stroke:#2a2eec;stroke-width:3;"/>
   </g>
   <g id="LineCollection_19">
    <path clip-path="url(#pd7acb06c52)" d="M 223.124733 621.791856 
L 321.043408 621.791856 
" style="fill:none;stroke:#2a2eec;stroke-width:1.5;"/>
   </g>
   <g id="LineCollection_20">
    <path clip-path="url(#pd7acb06c52)" d="M 230.801408 621.791856 
L 285.770013 621.791856 
" style="fill:none;stroke:#2a2eec;stroke-width:3;"/>
   </g>
   <g id="LineCollection_21">
    <path clip-path="url(#pd7acb06c52)" d="M 161.801756 546.712592 
L 306.715073 546.712592 
" style="fill:none;stroke:#2a2eec;stroke-width:1.5;"/>
   </g>
   <g id="LineCollection_22">
    <path clip-path="url(#pd7acb06c52)" d="M 185.496635 546.712592 
L 247.910228 546.712592 
" style="fill:none;stroke:#2a2eec;stroke-width:3;"/>
   </g>
   <g id="LineCollection_23">
    <path clip-path="url(#pd7acb06c52)" d="M 156.748387 534.199381 
L 295.665686 534.199381 
" style="fill:none;stroke:#2a2eec;stroke-width:1.5;"/>
   </g>
   <g id="LineCollection_24">
    <path clip-path="url(#pd7acb06c52)" d="M 194.168729 534.199381 
L 248.641861 534.199381 
" style="fill:none;stroke:#2a2eec;stroke-width:3;"/>
   </g>
   <g id="LineCollection_25">
    <path clip-path="url(#pd7acb06c52)" d="M 182.790072 521.68617 
L 332.632479 521.68617 
" style="fill:none;stroke:#2a2eec;stroke-width:1.5;"/>
   </g>
   <g id="LineCollection_26">
    <path clip-path="url(#pd7acb06c52)" d="M 207.215615 521.68617 
L 252.619679 521.68617 
" style="fill:none;stroke:#2a2eec;stroke-width:3;"/>
   </g>
   <g id="LineCollection_27">
    <path clip-path="url(#pd7acb06c52)" d="M 125.999044 509.172959 
L 304.432416 509.172959 
" style="fill:none;stroke:#2a2eec;stroke-width:1.5;"/>
   </g>
   <g id="LineCollection_28">
    <path clip-path="url(#pd7acb06c52)" d="M 199.127005 509.172959 
L 250.098398 509.172959 
" style="fill:none;stroke:#2a2eec;stroke-width:3;"/>
   </g>
   <g id="LineCollection_29">
    <path clip-path="url(#pd7acb06c52)" d="M 176.530877 496.659748 
L 313.671198 496.659748 
" style="fill:none;stroke:#2a2eec;stroke-width:1.5;"/>
   </g>
   <g id="LineCollection_30">
    <path clip-path="url(#pd7acb06c52)" d="M 208.057468 496.659748 
L 242.23731 496.659748 
" style="fill:none;stroke:#2a2eec;stroke-width:3;"/>
   </g>
   <g id="LineCollection_31">
    <path clip-path="url(#pd7acb06c52)" d="M 109.909028 484.146538 
L 286.052422 484.146538 
" style="fill:none;stroke:#2a2eec;stroke-width:1.5;"/>
   </g>
   <g id="LineCollection_32">
    <path clip-path="url(#pd7acb06c52)" d="M 185.264141 484.146538 
L 252.958699 484.146538 
" style="fill:none;stroke:#2a2eec;stroke-width:3;"/>
   </g>
   <g id="LineCollection_33">
    <path clip-path="url(#pd7acb06c52)" d="M 160.320557 471.633327 
L 303.01999 471.633327 
" style="fill:none;stroke:#2a2eec;stroke-width:1.5;"/>
   </g>
   <g id="LineCollection_34">
    <path clip-path="url(#pd7acb06c52)" d="M 194.041918 471.633327 
L 257.532539 471.633327 
" style="fill:none;stroke:#2a2eec;stroke-width:3;"/>
   </g>
   <g id="LineCollection_35">
    <path clip-path="url(#pd7acb06c52)" d="M 118.991948 459.120116 
L 299.659978 459.120116 
" style="fill:none;stroke:#2a2eec;stroke-width:1.5;"/>
   </g>
   <g id="LineCollection_36">
    <path clip-path="url(#pd7acb06c52)" d="M 189.130664 459.120116 
L 246.266565 459.120116 
" style="fill:none;stroke:#2a2eec;stroke-width:3;"/>
   </g>
   <g id="LineCollection_37">
    <path clip-path="url(#pd7acb06c52)" d="M 134.405555 446.606905 
L 305.998646 446.606905 
" style="fill:none;stroke:#2a2eec;stroke-width:1.5;"/>
   </g>
   <g id="LineCollection_38">
    <path clip-path="url(#pd7acb06c52)" d="M 198.168788 446.606905 
L 255.515484 446.606905 
" style="fill:none;stroke:#2a2eec;stroke-width:3;"/>
   </g>
   <g id="LineCollection_39">
    <path clip-path="url(#pd7acb06c52)" d="M 154.5336 434.093695 
L 380.479005 434.093695 
" style="fill:none;stroke:#2a2eec;stroke-width:1.5;"/>
   </g>
   <g id="LineCollection_40">
    <path clip-path="url(#pd7acb06c52)" d="M 200.3189 434.093695 
L 273.885489 434.093695 
" style="fill:none;stroke:#2a2eec;stroke-width:3;"/>
   </g>
   <g id="LineCollection_41">
    <path clip-path="url(#pd7acb06c52)" d="M 164.111716 359.01443 
L 319.509895 359.01443 
" style="fill:none;stroke:#2a2eec;stroke-width:1.5;"/>
   </g>
   <g id="LineCollection_42">
    <path clip-path="url(#pd7acb06c52)" d="M 203.951718 359.01443 
L 270.475655 359.01443 
" style="fill:none;stroke:#2a2eec;stroke-width:3;"/>
   </g>
   <g id="LineCollection_43">
    <path clip-path="url(#pd7acb06c52)" d="M 143.038025 346.501219 
L 413.547893 346.501219 
" style="fill:none;stroke:#2a2eec;stroke-width:1.5;"/>
   </g>
   <g id="LineCollection_44">
    <path clip-path="url(#pd7acb06c52)" d="M 209.803405 346.501219 
L 261.227153 346.501219 
" style="fill:none;stroke:#2a2eec;stroke-width:3;"/>
   </g>
   <g id="LineCollection_45">
    <path clip-path="url(#pd7acb06c52)" d="M 167.314307 333.988009 
L 345.937923 333.988009 
" style="fill:none;stroke:#2a2eec;stroke-width:1.5;"/>
   </g>
   <g id="LineCollection_46">
    <path clip-path="url(#pd7acb06c52)" d="M 204.95091 333.988009 
L 267.569429 333.988009 
" style="fill:none;stroke:#2a2eec;stroke-width:3;"/>
   </g>
   <g id="LineCollection_47">
    <path clip-path="url(#pd7acb06c52)" d="M 189.357792 321.474798 
L 349.051287 321.474798 
" style="fill:none;stroke:#2a2eec;stroke-width:1.5;"/>
   </g>
   <g id="LineCollection_48">
    <path clip-path="url(#pd7acb06c52)" d="M 207.290979 321.474798 
L 269.598901 321.474798 
" style="fill:none;stroke:#2a2eec;stroke-width:3;"/>
   </g>
   <g id="LineCollection_49">
    <path clip-path="url(#pd7acb06c52)" d="M 171.214924 308.961587 
L 341.995543 308.961587 
" style="fill:none;stroke:#2a2eec;stroke-width:1.5;"/>
   </g>
   <g id="LineCollection_50">
    <path clip-path="url(#pd7acb06c52)" d="M 209.930042 308.961587 
L 276.636275 308.961587 
" style="fill:none;stroke:#2a2eec;stroke-width:3;"/>
   </g>
   <g id="LineCollection_51">
    <path clip-path="url(#pd7acb06c52)" d="M 158.129978 296.448376 
L 357.182664 296.448376 
" style="fill:none;stroke:#2a2eec;stroke-width:1.5;"/>
   </g>
   <g id="LineCollection_52">
    <path clip-path="url(#pd7acb06c52)" d="M 209.782892 296.448376 
L 278.636582 296.448376 
" style="fill:none;stroke:#2a2eec;stroke-width:3;"/>
   </g>
   <g id="LineCollection_53">
    <path clip-path="url(#pd7acb06c52)" d="M 160.542735 283.935166 
L 336.422901 283.935166 
" style="fill:none;stroke:#2a2eec;stroke-width:1.5;"/>
   </g>
   <g id="LineCollection_54">
    <path clip-path="url(#pd7acb06c52)" d="M 206.268523 283.935166 
L 258.584915 283.935166 
" style="fill:none;stroke:#2a2eec;stroke-width:3;"/>
   </g>
   <g id="LineCollection_55">
    <path clip-path="url(#pd7acb06c52)" d="M 167.365372 271.421955 
L 318.721925 271.421955 
" style="fill:none;stroke:#2a2eec;stroke-width:1.5;"/>
   </g>
   <g id="LineCollection_56">
    <path clip-path="url(#pd7acb06c52)" d="M 218.077502 271.421955 
L 266.619851 271.421955 
" style="fill:none;stroke:#2a2eec;stroke-width:3;"/>
   </g>
   <g id="LineCollection_57">
    <path clip-path="url(#pd7acb06c52)" d="M 160.198851 258.908744 
L 353.486548 258.908744 
" style="fill:none;stroke:#2a2eec;stroke-width:1.5;"/>
   </g>
   <g id="LineCollection_58">
    <path clip-path="url(#pd7acb06c52)" d="M 208.221339 258.908744 
L 264.779304 258.908744 
" style="fill:none;stroke:#2a2eec;stroke-width:3;"/>
   </g>
   <g id="LineCollection_59">
    <path clip-path="url(#pd7acb06c52)" d="M 150.881161 246.395533 
L 321.85378 246.395533 
" style="fill:none;stroke:#2a2eec;stroke-width:1.5;"/>
   </g>
   <g id="LineCollection_60">
    <path clip-path="url(#pd7acb06c52)" d="M 202.576436 246.395533 
L 269.570022 246.395533 
" style="fill:none;stroke:#2a2eec;stroke-width:3;"/>
   </g>
   <g id="LineCollection_61">
    <path clip-path="url(#pd7acb06c52)" d="M 134.599596 171.316269 
L 304.094355 171.316269 
" style="fill:none;stroke:#2a2eec;stroke-width:1.5;"/>
   </g>
   <g id="LineCollection_62">
    <path clip-path="url(#pd7acb06c52)" d="M 186.31694 171.316269 
L 253.436657 171.316269 
" style="fill:none;stroke:#2a2eec;stroke-width:3;"/>
   </g>
   <g id="LineCollection_63">
    <path clip-path="url(#pd7acb06c52)" d="M 104.510545 158.803058 
L 292.028483 158.803058 
" style="fill:none;stroke:#2a2eec;stroke-width:1.5;"/>
   </g>
   <g id="LineCollection_64">
    <path clip-path="url(#pd7acb06c52)" d="M 179.274862 158.803058 
L 245.674955 158.803058 
" style="fill:none;stroke:#2a2eec;stroke-width:3;"/>
   </g>
   <g id="LineCollection_65">
    <path clip-path="url(#pd7acb06c52)" d="M 165.086389 146.289847 
L 297.253926 146.289847 
" style="fill:none;stroke:#2a2eec;stroke-width:1.5;"/>
   </g>
   <g id="LineCollection_66">
    <path clip-path="url(#pd7acb06c52)" d="M 191.325353 146.289847 
L 243.511854 146.289847 
" style="fill:none;stroke:#2a2eec;stroke-width:3;"/>
   </g>
   <g id="LineCollection_67">
    <path clip-path="url(#pd7acb06c52)" d="M 147.694709 133.776637 
L 304.965292 133.776637 
" style="fill:none;stroke:#2a2eec;stroke-width:1.5;"/>
   </g>
   <g id="LineCollection_68">
    <path clip-path="url(#pd7acb06c52)" d="M 206.777885 133.776637 
L 249.146438 133.776637 
" style="fill:none;stroke:#2a2eec;stroke-width:3;"/>
   </g>
   <g id="LineCollection_69">
    <path clip-path="url(#pd7acb06c52)" d="M 124.673669 121.263426 
L 285.156719 121.263426 
" style="fill:none;stroke:#2a2eec;stroke-width:1.5;"/>
   </g>
   <g id="LineCollection_70">
    <path clip-path="url(#pd7acb06c52)" d="M 175.071946 121.263426 
L 247.550967 121.263426 
" style="fill:none;stroke:#2a2eec;stroke-width:3;"/>
   </g>
   <g id="LineCollection_71">
    <path clip-path="url(#pd7acb06c52)" d="M 144.246805 108.750215 
L 291.223829 108.750215 
" style="fill:none;stroke:#2a2eec;stroke-width:1.5;"/>
   </g>
   <g id="LineCollection_72">
    <path clip-path="url(#pd7acb06c52)" d="M 197.831871 108.750215 
L 249.346839 108.750215 
" style="fill:none;stroke:#2a2eec;stroke-width:3;"/>
   </g>
   <g id="LineCollection_73">
    <path clip-path="url(#pd7acb06c52)" d="M 146.951302 96.237005 
L 286.736625 96.237005 
" style="fill:none;stroke:#2a2eec;stroke-width:1.5;"/>
   </g>
   <g id="LineCollection_74">
    <path clip-path="url(#pd7acb06c52)" d="M 199.975503 96.237005 
L 232.326369 96.237005 
" style="fill:none;stroke:#2a2eec;stroke-width:3;"/>
   </g>
   <g id="LineCollection_75">
    <path clip-path="url(#pd7acb06c52)" d="M 168.066361 83.723794 
L 286.011775 83.723794 
" style="fill:none;stroke:#2a2eec;stroke-width:1.5;"/>
   </g>
   <g id="LineCollection_76">
    <path clip-path="url(#pd7acb06c52)" d="M 190.815132 83.723794 
L 248.00395 83.723794 
" style="fill:none;stroke:#2a2eec;stroke-width:3;"/>
   </g>
   <g id="LineCollection_77">
    <path clip-path="url(#pd7acb06c52)" d="M 137.75558 71.210583 
L 305.947727 71.210583 
" style="fill:none;stroke:#2a2eec;stroke-width:1.5;"/>
   </g>
   <g id="LineCollection_78">
    <path clip-path="url(#pd7acb06c52)" d="M 195.724828 71.210583 
L 256.647368 71.210583 
" style="fill:none;stroke:#2a2eec;stroke-width:3;"/>
   </g>
   <g id="LineCollection_79">
    <path clip-path="url(#pd7acb06c52)" d="M 157.431497 58.697372 
L 284.160369 58.697372 
" style="fill:none;stroke:#2a2eec;stroke-width:1.5;"/>
   </g>
   <g id="LineCollection_80">
    <path clip-path="url(#pd7acb06c52)" d="M 190.017244 58.697372 
L 248.151573 58.697372 
" style="fill:none;stroke:#2a2eec;stroke-width:3;"/>
   </g>
   <g id="line2d_9">
    <defs>
     <path d="M 0 2.25 
C 0.596707 2.25 1.169055 2.012926 1.59099 1.59099 
C 2.012926 1.169055 2.25 0.596707 2.25 0 
C 2.25 -0.596707 2.012926 -1.169055 1.59099 -1.59099 
C 1.169055 -2.012926 0.596707 -2.25 0 -2.25 
C -0.596707 -2.25 -1.169055 -2.012926 -1.59099 -1.59099 
C -2.012926 -1.169055 -2.25 -0.596707 -2.25 0 
C -2.25 0.596707 -2.012926 1.169055 -1.59099 1.59099 
C -1.169055 2.012926 -0.596707 2.25 0 2.25 
z
" id="m25d1365cdb" style="stroke:#2a2eec;"/>
    </defs>
    <g clip-path="url(#pd7acb06c52)">
     <use style="fill:#eeeeee;stroke:#2a2eec;" x="253.278638" xlink:href="#m25d1365cdb" y="734.410753"/>
    </g>
   </g>
   <g id="line2d_10">
    <g clip-path="url(#pd7acb06c52)">
     <use style="fill:#eeeeee;stroke:#2a2eec;" x="248.808197" xlink:href="#m25d1365cdb" y="721.897542"/>
    </g>
   </g>
   <g id="line2d_11">
    <g clip-path="url(#pd7acb06c52)">
     <use style="fill:#eeeeee;stroke:#2a2eec;" x="240.679119" xlink:href="#m25d1365cdb" y="709.384331"/>
    </g>
   </g>
   <g id="line2d_12">
    <g clip-path="url(#pd7acb06c52)">
     <use style="fill:#eeeeee;stroke:#2a2eec;" x="257.871403" xlink:href="#m25d1365cdb" y="696.87112"/>
    </g>
   </g>
   <g id="line2d_13">
    <g clip-path="url(#pd7acb06c52)">
     <use style="fill:#eeeeee;stroke:#2a2eec;" x="246.489179" xlink:href="#m25d1365cdb" y="684.35791"/>
    </g>
   </g>
   <g id="line2d_14">
    <g clip-path="url(#pd7acb06c52)">
     <use style="fill:#eeeeee;stroke:#2a2eec;" x="247.979337" xlink:href="#m25d1365cdb" y="671.844699"/>
    </g>
   </g>
   <g id="line2d_15">
    <g clip-path="url(#pd7acb06c52)">
     <use style="fill:#eeeeee;stroke:#2a2eec;" x="251.739546" xlink:href="#m25d1365cdb" y="659.331488"/>
    </g>
   </g>
   <g id="line2d_16">
    <g clip-path="url(#pd7acb06c52)">
     <use style="fill:#eeeeee;stroke:#2a2eec;" x="251.951865" xlink:href="#m25d1365cdb" y="646.818278"/>
    </g>
   </g>
   <g id="line2d_17">
    <g clip-path="url(#pd7acb06c52)">
     <use style="fill:#eeeeee;stroke:#2a2eec;" x="237.802304" xlink:href="#m25d1365cdb" y="634.305067"/>
    </g>
   </g>
   <g id="line2d_18">
    <g clip-path="url(#pd7acb06c52)">
     <use style="fill:#eeeeee;stroke:#2a2eec;" x="247.689893" xlink:href="#m25d1365cdb" y="621.791856"/>
    </g>
   </g>
   <g id="line2d_19">
    <g clip-path="url(#pd7acb06c52)">
     <use style="fill:#eeeeee;stroke:#2a2eec;" x="212.833789" xlink:href="#m25d1365cdb" y="546.712592"/>
    </g>
   </g>
   <g id="line2d_20">
    <g clip-path="url(#pd7acb06c52)">
     <use style="fill:#eeeeee;stroke:#2a2eec;" x="220.813123" xlink:href="#m25d1365cdb" y="534.199381"/>
    </g>
   </g>
   <g id="line2d_21">
    <g clip-path="url(#pd7acb06c52)">
     <use style="fill:#eeeeee;stroke:#2a2eec;" x="231.63042" xlink:href="#m25d1365cdb" y="521.68617"/>
    </g>
   </g>
   <g id="line2d_22">
    <g clip-path="url(#pd7acb06c52)">
     <use style="fill:#eeeeee;stroke:#2a2eec;" x="223.634066" xlink:href="#m25d1365cdb" y="509.172959"/>
    </g>
   </g>
   <g id="line2d_23">
    <g clip-path="url(#pd7acb06c52)">
     <use style="fill:#eeeeee;stroke:#2a2eec;" x="224.506068" xlink:href="#m25d1365cdb" y="496.659748"/>
    </g>
   </g>
   <g id="line2d_24">
    <g clip-path="url(#pd7acb06c52)">
     <use style="fill:#eeeeee;stroke:#2a2eec;" x="212.11499" xlink:href="#m25d1365cdb" y="484.146538"/>
    </g>
   </g>
   <g id="line2d_25">
    <g clip-path="url(#pd7acb06c52)">
     <use style="fill:#eeeeee;stroke:#2a2eec;" x="226.233696" xlink:href="#m25d1365cdb" y="471.633327"/>
    </g>
   </g>
   <g id="line2d_26">
    <g clip-path="url(#pd7acb06c52)">
     <use style="fill:#eeeeee;stroke:#2a2eec;" x="218.006074" xlink:href="#m25d1365cdb" y="459.120116"/>
    </g>
   </g>
   <g id="line2d_27">
    <g clip-path="url(#pd7acb06c52)">
     <use style="fill:#eeeeee;stroke:#2a2eec;" x="225.006268" xlink:href="#m25d1365cdb" y="446.606905"/>
    </g>
   </g>
   <g id="line2d_28">
    <g clip-path="url(#pd7acb06c52)">
     <use style="fill:#eeeeee;stroke:#2a2eec;" x="224.637773" xlink:href="#m25d1365cdb" y="434.093695"/>
    </g>
   </g>
   <g id="line2d_29">
    <g clip-path="url(#pd7acb06c52)">
     <use style="fill:#eeeeee;stroke:#2a2eec;" x="224.959602" xlink:href="#m25d1365cdb" y="359.01443"/>
    </g>
   </g>
   <g id="line2d_30">
    <g clip-path="url(#pd7acb06c52)">
     <use style="fill:#eeeeee;stroke:#2a2eec;" x="242.229633" xlink:href="#m25d1365cdb" y="346.501219"/>
    </g>
   </g>
   <g id="line2d_31">
    <g clip-path="url(#pd7acb06c52)">
     <use style="fill:#eeeeee;stroke:#2a2eec;" x="232.633162" xlink:href="#m25d1365cdb" y="333.988009"/>
    </g>
   </g>
   <g id="line2d_32">
    <g clip-path="url(#pd7acb06c52)">
     <use style="fill:#eeeeee;stroke:#2a2eec;" x="233.528962" xlink:href="#m25d1365cdb" y="321.474798"/>
    </g>
   </g>
   <g id="line2d_33">
    <g clip-path="url(#pd7acb06c52)">
     <use style="fill:#eeeeee;stroke:#2a2eec;" x="228.354043" xlink:href="#m25d1365cdb" y="308.961587"/>
    </g>
   </g>
   <g id="line2d_34">
    <g clip-path="url(#pd7acb06c52)">
     <use style="fill:#eeeeee;stroke:#2a2eec;" x="244.866594" xlink:href="#m25d1365cdb" y="296.448376"/>
    </g>
   </g>
   <g id="line2d_35">
    <g clip-path="url(#pd7acb06c52)">
     <use style="fill:#eeeeee;stroke:#2a2eec;" x="229.58692" xlink:href="#m25d1365cdb" y="283.935166"/>
    </g>
   </g>
   <g id="line2d_36">
    <g clip-path="url(#pd7acb06c52)">
     <use style="fill:#eeeeee;stroke:#2a2eec;" x="239.31956" xlink:href="#m25d1365cdb" y="271.421955"/>
    </g>
   </g>
   <g id="line2d_37">
    <g clip-path="url(#pd7acb06c52)">
     <use style="fill:#eeeeee;stroke:#2a2eec;" x="239.180039" xlink:href="#m25d1365cdb" y="258.908744"/>
    </g>
   </g>
   <g id="line2d_38">
    <g clip-path="url(#pd7acb06c52)">
     <use style="fill:#eeeeee;stroke:#2a2eec;" x="231.76915" xlink:href="#m25d1365cdb" y="246.395533"/>
    </g>
   </g>
   <g id="line2d_39">
    <g clip-path="url(#pd7acb06c52)">
     <use style="fill:#eeeeee;stroke:#2a2eec;" x="222.669326" xlink:href="#m25d1365cdb" y="171.316269"/>
    </g>
   </g>
   <g id="line2d_40">
    <g clip-path="url(#pd7acb06c52)">
     <use style="fill:#eeeeee;stroke:#2a2eec;" x="214.71619" xlink:href="#m25d1365cdb" y="158.803058"/>
    </g>
   </g>
   <g id="line2d_41">
    <g clip-path="url(#pd7acb06c52)">
     <use style="fill:#eeeeee;stroke:#2a2eec;" x="221.10551" xlink:href="#m25d1365cdb" y="146.289847"/>
    </g>
   </g>
   <g id="line2d_42">
    <g clip-path="url(#pd7acb06c52)">
     <use style="fill:#eeeeee;stroke:#2a2eec;" x="231.11504" xlink:href="#m25d1365cdb" y="133.776637"/>
    </g>
   </g>
   <g id="line2d_43">
    <g clip-path="url(#pd7acb06c52)">
     <use style="fill:#eeeeee;stroke:#2a2eec;" x="213.796066" xlink:href="#m25d1365cdb" y="121.263426"/>
    </g>
   </g>
   <g id="line2d_44">
    <g clip-path="url(#pd7acb06c52)">
     <use style="fill:#eeeeee;stroke:#2a2eec;" x="225.931679" xlink:href="#m25d1365cdb" y="108.750215"/>
    </g>
   </g>
   <g id="line2d_45">
    <g clip-path="url(#pd7acb06c52)">
     <use style="fill:#eeeeee;stroke:#2a2eec;" x="222.71577" xlink:href="#m25d1365cdb" y="96.237005"/>
    </g>
   </g>
   <g id="line2d_46">
    <g clip-path="url(#pd7acb06c52)">
     <use style="fill:#eeeeee;stroke:#2a2eec;" x="216.752381" xlink:href="#m25d1365cdb" y="83.723794"/>
    </g>
   </g>
   <g id="line2d_47">
    <g clip-path="url(#pd7acb06c52)">
     <use style="fill:#eeeeee;stroke:#2a2eec;" x="234.040315" xlink:href="#m25d1365cdb" y="71.210583"/>
    </g>
   </g>
   <g id="line2d_48">
    <g clip-path="url(#pd7acb06c52)">
     <use style="fill:#eeeeee;stroke:#2a2eec;" x="221.604748" xlink:href="#m25d1365cdb" y="58.697372"/>
    </g>
   </g>
   <g id="patch_3">
    <path d="M 89.058678 771.950385 
L 428.99976 771.950385 
" style="fill:none;"/>
   </g>
   <g id="patch_4">
    <path d="M 89.058678 21.15774 
L 428.99976 21.15774 
" style="fill:none;"/>
   </g>
   <g id="text_9">
    <!-- 94.0% Credible Interval -->
    <defs>
     <path d="M 10.984375 1.515625 
L 10.984375 10.5 
Q 14.703125 8.734375 18.5 7.8125 
Q 22.3125 6.890625 25.984375 6.890625 
Q 35.75 6.890625 40.890625 13.453125 
Q 46.046875 20.015625 46.78125 33.40625 
Q 43.953125 29.203125 39.59375 26.953125 
Q 35.25 24.703125 29.984375 24.703125 
Q 19.046875 24.703125 12.671875 31.3125 
Q 6.296875 37.9375 6.296875 49.421875 
Q 6.296875 60.640625 12.9375 67.421875 
Q 19.578125 74.21875 30.609375 74.21875 
Q 43.265625 74.21875 49.921875 64.515625 
Q 56.59375 54.828125 56.59375 36.375 
Q 56.59375 19.140625 48.40625 8.859375 
Q 40.234375 -1.421875 26.421875 -1.421875 
Q 22.703125 -1.421875 18.890625 -0.6875 
Q 15.09375 0.046875 10.984375 1.515625 
z
M 30.609375 32.421875 
Q 37.25 32.421875 41.125 36.953125 
Q 45.015625 41.5 45.015625 49.421875 
Q 45.015625 57.28125 41.125 61.84375 
Q 37.25 66.40625 30.609375 66.40625 
Q 23.96875 66.40625 20.09375 61.84375 
Q 16.21875 57.28125 16.21875 49.421875 
Q 16.21875 41.5 20.09375 36.953125 
Q 23.96875 32.421875 30.609375 32.421875 
z
" id="DejaVuSans-57"/>
     <path d="M 10.6875 12.40625 
L 21 12.40625 
L 21 0 
L 10.6875 0 
z
" id="DejaVuSans-46"/>
     <path d="M 72.703125 32.078125 
Q 68.453125 32.078125 66.03125 28.46875 
Q 63.625 24.859375 63.625 18.40625 
Q 63.625 12.0625 66.03125 8.421875 
Q 68.453125 4.78125 72.703125 4.78125 
Q 76.859375 4.78125 79.265625 8.421875 
Q 81.6875 12.0625 81.6875 18.40625 
Q 81.6875 24.8125 79.265625 28.4375 
Q 76.859375 32.078125 72.703125 32.078125 
z
M 72.703125 38.28125 
Q 80.421875 38.28125 84.953125 32.90625 
Q 89.5 27.546875 89.5 18.40625 
Q 89.5 9.28125 84.9375 3.921875 
Q 80.375 -1.421875 72.703125 -1.421875 
Q 64.890625 -1.421875 60.34375 3.921875 
Q 55.8125 9.28125 55.8125 18.40625 
Q 55.8125 27.59375 60.375 32.9375 
Q 64.9375 38.28125 72.703125 38.28125 
z
M 22.3125 68.015625 
Q 18.109375 68.015625 15.6875 64.375 
Q 13.28125 60.75 13.28125 54.390625 
Q 13.28125 47.953125 15.671875 44.328125 
Q 18.0625 40.71875 22.3125 40.71875 
Q 26.5625 40.71875 28.96875 44.328125 
Q 31.390625 47.953125 31.390625 54.390625 
Q 31.390625 60.6875 28.953125 64.34375 
Q 26.515625 68.015625 22.3125 68.015625 
z
M 66.40625 74.21875 
L 74.21875 74.21875 
L 28.609375 -1.421875 
L 20.796875 -1.421875 
z
M 22.3125 74.21875 
Q 30.03125 74.21875 34.609375 68.875 
Q 39.203125 63.53125 39.203125 54.390625 
Q 39.203125 45.171875 34.640625 39.84375 
Q 30.078125 34.515625 22.3125 34.515625 
Q 14.546875 34.515625 10.03125 39.859375 
Q 5.515625 45.21875 5.515625 54.390625 
Q 5.515625 63.484375 10.046875 68.84375 
Q 14.59375 74.21875 22.3125 74.21875 
z
" id="DejaVuSans-37"/>
     <path d="M 64.40625 67.28125 
L 64.40625 56.890625 
Q 59.421875 61.53125 53.78125 63.8125 
Q 48.140625 66.109375 41.796875 66.109375 
Q 29.296875 66.109375 22.65625 58.46875 
Q 16.015625 50.828125 16.015625 36.375 
Q 16.015625 21.96875 22.65625 14.328125 
Q 29.296875 6.6875 41.796875 6.6875 
Q 48.140625 6.6875 53.78125 8.984375 
Q 59.421875 11.28125 64.40625 15.921875 
L 64.40625 5.609375 
Q 59.234375 2.09375 53.4375 0.328125 
Q 47.65625 -1.421875 41.21875 -1.421875 
Q 24.65625 -1.421875 15.125 8.703125 
Q 5.609375 18.84375 5.609375 36.375 
Q 5.609375 53.953125 15.125 64.078125 
Q 24.65625 74.21875 41.21875 74.21875 
Q 47.75 74.21875 53.53125 72.484375 
Q 59.328125 70.75 64.40625 67.28125 
z
" id="DejaVuSans-67"/>
     <path d="M 9.8125 72.90625 
L 19.671875 72.90625 
L 19.671875 0 
L 9.8125 0 
z
" id="DejaVuSans-73"/>
     <path d="M 2.984375 54.6875 
L 12.5 54.6875 
L 29.59375 8.796875 
L 46.6875 54.6875 
L 56.203125 54.6875 
L 35.6875 0 
L 23.484375 0 
z
" id="DejaVuSans-118"/>
    </defs>
    <g style="fill:#262626;" transform="translate(164.572969 15.15774)scale(0.16 -0.16)">
     <use xlink:href="#DejaVuSans-57"/>
     <use x="63.623047" xlink:href="#DejaVuSans-52"/>
     <use x="127.246094" xlink:href="#DejaVuSans-46"/>
     <use x="159.033203" xlink:href="#DejaVuSans-48"/>
     <use x="222.65625" xlink:href="#DejaVuSans-37"/>
     <use x="317.675781" xlink:href="#DejaVuSans-32"/>
     <use x="349.462891" xlink:href="#DejaVuSans-67"/>
     <use x="419.287109" xlink:href="#DejaVuSans-114"/>
     <use x="460.369141" xlink:href="#DejaVuSans-101"/>
     <use x="521.892578" xlink:href="#DejaVuSans-100"/>
     <use x="585.369141" xlink:href="#DejaVuSans-105"/>
     <use x="613.152344" xlink:href="#DejaVuSans-98"/>
     <use x="676.628906" xlink:href="#DejaVuSans-108"/>
     <use x="704.412109" xlink:href="#DejaVuSans-101"/>
     <use x="765.935547" xlink:href="#DejaVuSans-32"/>
     <use x="797.722656" xlink:href="#DejaVuSans-73"/>
     <use x="827.214844" xlink:href="#DejaVuSans-110"/>
     <use x="890.59375" xlink:href="#DejaVuSans-116"/>
     <use x="929.802734" xlink:href="#DejaVuSans-101"/>
     <use x="991.326172" xlink:href="#DejaVuSans-114"/>
     <use x="1032.439453" xlink:href="#DejaVuSans-118"/>
     <use x="1091.619141" xlink:href="#DejaVuSans-97"/>
     <use x="1152.898438" xlink:href="#DejaVuSans-108"/>
    </g>
   </g>
  </g>
 </g>
 <defs>
  <clipPath id="pd7acb06c52">
   <rect height="750.792645" width="339.941082" x="89.058678" y="21.15774"/>
  </clipPath>
 </defs>
</svg>
