<?xml version="1.0" encoding="utf-8" standalone="no"?>
<!DOCTYPE svg PUBLIC "-//W3C//DTD SVG 1.1//EN"
  "http://www.w3.org/Graphics/SVG/1.1/DTD/svg11.dtd">
<!-- Created with matplotlib (https://matplotlib.org/) -->
<svg height="345.6pt" version="1.1" viewBox="0 0 518.4 345.6" width="518.4pt" xmlns="http://www.w3.org/2000/svg" xmlns:xlink="http://www.w3.org/1999/xlink">
 <defs>
  <style type="text/css">
*{stroke-linecap:butt;stroke-linejoin:round;}
  </style>
 </defs>
 <g id="figure_1">
  <g id="patch_1">
   <path d="M 0 345.6 
L 518.4 345.6 
L 518.4 0 
L 0 0 
z
" style="fill:#ffffff;"/>
  </g>
  <g id="axes_1">
   <g id="patch_2">
    <path d="M 3.00024 322.550385 
L 515.39976 322.550385 
L 515.39976 21.15774 
L 3.00024 21.15774 
z
" style="fill:#eeeeee;"/>
   </g>
   <g id="matplotlib.axis_1">
    <g id="xtick_1">
     <g id="line2d_1">
      <path clip-path="url(#pb9159b09ff)" d="M 46.690491 322.550385 
L 46.690491 21.15774 
" style="fill:none;stroke:#ffffff;stroke-linecap:round;stroke-width:0.8;"/>
     </g>
     <g id="line2d_2">
      <defs>
       <path d="M 0 0 
L 0 3 
" id="m932648ac1d" style="stroke:#808080;"/>
      </defs>
      <g>
       <use style="fill:#808080;stroke:#808080;" x="46.690491" xlink:href="#m932648ac1d" y="322.550385"/>
      </g>
     </g>
     <g id="text_1">
      <!-- −4 -->
      <defs>
       <path d="M 10.59375 35.5 
L 73.1875 35.5 
L 73.1875 27.203125 
L 10.59375 27.203125 
z
" id="DejaVuSans-8722"/>
       <path d="M 37.796875 64.3125 
L 12.890625 25.390625 
L 37.796875 25.390625 
z
M 35.203125 72.90625 
L 47.609375 72.90625 
L 47.609375 25.390625 
L 58.015625 25.390625 
L 58.015625 17.1875 
L 47.609375 17.1875 
L 47.609375 0 
L 37.796875 0 
L 37.796875 17.1875 
L 4.890625 17.1875 
L 4.890625 26.703125 
z
" id="DejaVuSans-52"/>
      </defs>
      <g style="fill:#262626;" transform="translate(36.37096 339.688197)scale(0.14 -0.14)">
       <use xlink:href="#DejaVuSans-8722"/>
       <use x="83.789062" xlink:href="#DejaVuSans-52"/>
      </g>
     </g>
    </g>
    <g id="xtick_2">
     <g id="line2d_3">
      <path clip-path="url(#pb9159b09ff)" d="M 153.407227 322.550385 
L 153.407227 21.15774 
" style="fill:none;stroke:#ffffff;stroke-linecap:round;stroke-width:0.8;"/>
     </g>
     <g id="line2d_4">
      <g>
       <use style="fill:#808080;stroke:#808080;" x="153.407227" xlink:href="#m932648ac1d" y="322.550385"/>
      </g>
     </g>
     <g id="text_2">
      <!-- −2 -->
      <defs>
       <path d="M 19.1875 8.296875 
L 53.609375 8.296875 
L 53.609375 0 
L 7.328125 0 
L 7.328125 8.296875 
Q 12.9375 14.109375 22.625 23.890625 
Q 32.328125 33.6875 34.8125 36.53125 
Q 39.546875 41.84375 41.421875 45.53125 
Q 43.3125 49.21875 43.3125 52.78125 
Q 43.3125 58.59375 39.234375 62.25 
Q 35.15625 65.921875 28.609375 65.921875 
Q 23.96875 65.921875 18.8125 64.3125 
Q 13.671875 62.703125 7.8125 59.421875 
L 7.8125 69.390625 
Q 13.765625 71.78125 18.9375 73 
Q 24.125 74.21875 28.421875 74.21875 
Q 39.75 74.21875 46.484375 68.546875 
Q 53.21875 62.890625 53.21875 53.421875 
Q 53.21875 48.921875 51.53125 44.890625 
Q 49.859375 40.875 45.40625 35.40625 
Q 44.1875 33.984375 37.640625 27.21875 
Q 31.109375 20.453125 19.1875 8.296875 
z
" id="DejaVuSans-50"/>
      </defs>
      <g style="fill:#262626;" transform="translate(143.087696 339.688197)scale(0.14 -0.14)">
       <use xlink:href="#DejaVuSans-8722"/>
       <use x="83.789062" xlink:href="#DejaVuSans-50"/>
      </g>
     </g>
    </g>
    <g id="xtick_3">
     <g id="line2d_5">
      <path clip-path="url(#pb9159b09ff)" d="M 260.123962 322.550385 
L 260.123962 21.15774 
" style="fill:none;stroke:#ffffff;stroke-linecap:round;stroke-width:0.8;"/>
     </g>
     <g id="line2d_6">
      <g>
       <use style="fill:#808080;stroke:#808080;" x="260.123962" xlink:href="#m932648ac1d" y="322.550385"/>
      </g>
     </g>
     <g id="text_3">
      <!-- 0 -->
      <defs>
       <path d="M 31.78125 66.40625 
Q 24.171875 66.40625 20.328125 58.90625 
Q 16.5 51.421875 16.5 36.375 
Q 16.5 21.390625 20.328125 13.890625 
Q 24.171875 6.390625 31.78125 6.390625 
Q 39.453125 6.390625 43.28125 13.890625 
Q 47.125 21.390625 47.125 36.375 
Q 47.125 51.421875 43.28125 58.90625 
Q 39.453125 66.40625 31.78125 66.40625 
z
M 31.78125 74.21875 
Q 44.046875 74.21875 50.515625 64.515625 
Q 56.984375 54.828125 56.984375 36.375 
Q 56.984375 17.96875 50.515625 8.265625 
Q 44.046875 -1.421875 31.78125 -1.421875 
Q 19.53125 -1.421875 13.0625 8.265625 
Q 6.59375 17.96875 6.59375 36.375 
Q 6.59375 54.828125 13.0625 64.515625 
Q 19.53125 74.21875 31.78125 74.21875 
z
" id="DejaVuSans-48"/>
      </defs>
      <g style="fill:#262626;" transform="translate(255.670212 339.688197)scale(0.14 -0.14)">
       <use xlink:href="#DejaVuSans-48"/>
      </g>
     </g>
    </g>
    <g id="xtick_4">
     <g id="line2d_7">
      <path clip-path="url(#pb9159b09ff)" d="M 366.840698 322.550385 
L 366.840698 21.15774 
" style="fill:none;stroke:#ffffff;stroke-linecap:round;stroke-width:0.8;"/>
     </g>
     <g id="line2d_8">
      <g>
       <use style="fill:#808080;stroke:#808080;" x="366.840698" xlink:href="#m932648ac1d" y="322.550385"/>
      </g>
     </g>
     <g id="text_4">
      <!-- 2 -->
      <g style="fill:#262626;" transform="translate(362.386948 339.688197)scale(0.14 -0.14)">
       <use xlink:href="#DejaVuSans-50"/>
      </g>
     </g>
    </g>
    <g id="xtick_5">
     <g id="line2d_9">
      <path clip-path="url(#pb9159b09ff)" d="M 473.557434 322.550385 
L 473.557434 21.15774 
" style="fill:none;stroke:#ffffff;stroke-linecap:round;stroke-width:0.8;"/>
     </g>
     <g id="line2d_10">
      <g>
       <use style="fill:#808080;stroke:#808080;" x="473.557434" xlink:href="#m932648ac1d" y="322.550385"/>
      </g>
     </g>
     <g id="text_5">
      <!-- 4 -->
      <g style="fill:#262626;" transform="translate(469.103684 339.688197)scale(0.14 -0.14)">
       <use xlink:href="#DejaVuSans-52"/>
      </g>
     </g>
    </g>
   </g>
   <g id="matplotlib.axis_2"/>
   <g id="PolyCollection_1">
    <defs>
     <path d="M 26.291127 -36.749281 
L 26.291127 -36.842205 
L 28.63192 -36.842205 
L 30.972713 -36.844289 
L 33.313505 -36.848024 
L 35.654298 -36.853735 
L 37.995091 -36.861369 
L 40.335883 -36.871231 
L 42.676676 -36.882954 
L 45.017469 -36.896996 
L 47.358261 -36.913287 
L 49.699054 -36.932482 
L 52.039847 -36.95514 
L 54.38064 -36.982604 
L 56.721432 -37.016729 
L 59.062225 -37.058923 
L 61.403018 -37.110252 
L 63.74381 -37.17372 
L 66.084603 -37.251004 
L 68.425396 -37.344509 
L 70.766188 -37.454446 
L 73.106981 -37.582714 
L 75.447774 -37.728233 
L 77.788566 -37.891145 
L 80.129359 -38.072785 
L 82.470152 -38.270254 
L 84.810945 -38.48361 
L 87.151737 -38.713555 
L 89.49253 -38.963052 
L 91.833323 -39.234185 
L 94.174115 -39.533848 
L 96.514908 -39.865435 
L 98.855701 -40.23705 
L 101.196493 -40.654675 
L 103.537286 -41.132725 
L 105.878079 -41.672941 
L 108.218871 -42.28489 
L 110.559664 -42.977092 
L 112.900457 -43.751288 
L 115.24125 -44.615104 
L 117.582042 -45.570872 
L 119.922835 -46.622426 
L 122.263628 -47.770757 
L 124.60442 -49.017617 
L 126.945213 -50.367983 
L 129.286006 -51.831805 
L 131.626798 -53.417784 
L 133.967591 -55.138997 
L 136.308384 -56.999265 
L 138.649176 -59.026951 
L 140.989969 -61.227985 
L 143.330762 -63.618138 
L 145.671554 -66.206885 
L 148.012347 -69.003996 
L 150.35314 -72.02131 
L 152.693933 -75.253123 
L 155.034725 -78.710451 
L 157.375518 -82.382431 
L 159.716311 -86.270073 
L 162.057103 -90.368401 
L 164.397896 -94.669375 
L 166.738689 -99.18751 
L 169.079481 -103.914429 
L 171.420274 -108.857916 
L 173.761067 -113.998396 
L 176.101859 -119.354687 
L 178.442652 -124.909297 
L 180.783445 -130.667833 
L 183.124238 -136.607068 
L 185.46503 -142.717791 
L 187.805823 -148.99368 
L 190.146616 -155.412223 
L 192.487408 -161.948959 
L 194.828201 -168.595561 
L 197.168994 -175.326633 
L 199.509786 -182.132906 
L 201.850579 -188.996482 
L 204.191372 -195.90506 
L 206.532164 -202.815478 
L 208.872957 -209.709824 
L 211.21375 -216.564679 
L 213.554543 -223.346862 
L 215.895335 -230.024555 
L 218.236128 -236.579034 
L 220.576921 -242.98315 
L 222.917713 -249.233411 
L 225.258506 -255.305381 
L 227.599299 -261.199289 
L 229.940091 -266.880498 
L 232.280884 -272.371194 
L 234.621677 -277.63848 
L 236.962469 -282.656479 
L 239.303262 -287.389686 
L 241.644055 -291.791023 
L 243.984848 -295.831896 
L 246.32564 -299.468923 
L 248.666433 -302.661098 
L 251.007226 -305.35587 
L 253.348018 -307.534672 
L 255.688811 -309.159841 
L 258.029604 -310.237444 
L 260.370396 -310.742594 
L 262.711189 -310.68613 
L 265.051982 -310.085774 
L 267.392774 -308.981424 
L 269.733567 -307.374339 
L 272.07436 -305.311647 
L 274.415152 -302.816662 
L 276.755945 -299.901623 
L 279.096738 -296.592178 
L 281.437531 -292.907831 
L 283.778323 -288.82968 
L 286.119116 -284.363074 
L 288.459909 -279.497328 
L 290.800701 -274.245965 
L 293.141494 -268.618193 
L 295.482287 -262.633148 
L 297.823079 -256.324662 
L 300.163872 -249.750312 
L 302.504665 -242.972461 
L 304.845457 -236.060489 
L 307.18625 -229.042132 
L 309.527043 -221.987735 
L 311.867836 -214.947458 
L 314.208628 -207.947824 
L 316.549421 -201.004318 
L 318.890214 -194.126503 
L 321.231006 -187.312905 
L 323.571799 -180.575725 
L 325.912592 -173.903752 
L 328.253384 -167.294654 
L 330.594177 -160.761062 
L 332.93497 -154.302812 
L 335.275762 -147.943389 
L 337.616555 -141.690153 
L 339.957348 -135.559918 
L 342.298141 -129.560476 
L 344.638933 -123.729939 
L 346.979726 -118.067051 
L 349.320519 -112.587358 
L 351.661311 -107.315981 
L 354.002104 -102.254816 
L 356.342897 -97.428396 
L 358.683689 -92.850083 
L 361.024482 -88.518403 
L 363.365275 -84.44572 
L 365.706067 -80.638104 
L 368.04686 -77.08574 
L 370.387653 -73.795818 
L 372.728446 -70.747718 
L 375.069238 -67.935883 
L 377.410031 -65.337802 
L 379.750824 -62.941557 
L 382.091616 -60.737521 
L 384.432409 -58.700941 
L 386.773202 -56.81227 
L 389.113994 -55.061848 
L 391.454787 -53.432096 
L 393.79558 -51.911139 
L 396.136372 -50.492843 
L 398.477165 -49.164769 
L 400.817958 -47.924013 
L 403.15875 -46.771678 
L 405.499543 -45.701611 
L 407.840336 -44.712752 
L 410.181129 -43.806924 
L 412.521921 -42.982861 
L 414.862714 -42.241647 
L 417.203507 -41.578986 
L 419.544299 -40.984943 
L 421.885092 -40.460541 
L 424.225885 -39.996633 
L 426.566677 -39.588064 
L 428.90747 -39.227514 
L 431.248263 -38.909736 
L 433.589055 -38.6289 
L 435.929848 -38.382899 
L 438.270641 -38.165805 
L 440.611434 -37.974445 
L 442.952226 -37.806698 
L 445.293019 -37.660096 
L 447.633812 -37.532935 
L 449.974604 -37.422691 
L 452.315397 -37.328542 
L 454.65619 -37.24863 
L 456.996982 -37.181138 
L 459.337775 -37.12452 
L 461.678568 -37.076194 
L 464.01936 -37.035435 
L 466.360153 -37.000235 
L 468.700946 -36.968759 
L 471.041739 -36.940177 
L 473.382531 -36.91477 
L 475.723324 -36.891503 
L 478.064117 -36.870368 
L 480.404909 -36.85236 
L 482.745702 -36.836762 
L 485.086495 -36.824408 
L 487.427287 -36.814865 
L 489.76808 -36.808144 
L 492.108873 -36.804288 
L 492.108873 -36.749281 
L 492.108873 -36.749281 
L 489.76808 -36.749281 
L 487.427287 -36.749281 
L 485.086495 -36.749281 
L 482.745702 -36.749281 
L 480.404909 -36.749281 
L 478.064117 -36.749281 
L 475.723324 -36.749281 
L 473.382531 -36.749281 
L 471.041739 -36.749281 
L 468.700946 -36.749281 
L 466.360153 -36.749281 
L 464.01936 -36.749281 
L 461.678568 -36.749281 
L 459.337775 -36.749281 
L 456.996982 -36.749281 
L 454.65619 -36.749281 
L 452.315397 -36.749281 
L 449.974604 -36.749281 
L 447.633812 -36.749281 
L 445.293019 -36.749281 
L 442.952226 -36.749281 
L 440.611434 -36.749281 
L 438.270641 -36.749281 
L 435.929848 -36.749281 
L 433.589055 -36.749281 
L 431.248263 -36.749281 
L 428.90747 -36.749281 
L 426.566677 -36.749281 
L 424.225885 -36.749281 
L 421.885092 -36.749281 
L 419.544299 -36.749281 
L 417.203507 -36.749281 
L 414.862714 -36.749281 
L 412.521921 -36.749281 
L 410.181129 -36.749281 
L 407.840336 -36.749281 
L 405.499543 -36.749281 
L 403.15875 -36.749281 
L 400.817958 -36.749281 
L 398.477165 -36.749281 
L 396.136372 -36.749281 
L 393.79558 -36.749281 
L 391.454787 -36.749281 
L 389.113994 -36.749281 
L 386.773202 -36.749281 
L 384.432409 -36.749281 
L 382.091616 -36.749281 
L 379.750824 -36.749281 
L 377.410031 -36.749281 
L 375.069238 -36.749281 
L 372.728446 -36.749281 
L 370.387653 -36.749281 
L 368.04686 -36.749281 
L 365.706067 -36.749281 
L 363.365275 -36.749281 
L 361.024482 -36.749281 
L 358.683689 -36.749281 
L 356.342897 -36.749281 
L 354.002104 -36.749281 
L 351.661311 -36.749281 
L 349.320519 -36.749281 
L 346.979726 -36.749281 
L 344.638933 -36.749281 
L 342.298141 -36.749281 
L 339.957348 -36.749281 
L 337.616555 -36.749281 
L 335.275762 -36.749281 
L 332.93497 -36.749281 
L 330.594177 -36.749281 
L 328.253384 -36.749281 
L 325.912592 -36.749281 
L 323.571799 -36.749281 
L 321.231006 -36.749281 
L 318.890214 -36.749281 
L 316.549421 -36.749281 
L 314.208628 -36.749281 
L 311.867836 -36.749281 
L 309.527043 -36.749281 
L 307.18625 -36.749281 
L 304.845457 -36.749281 
L 302.504665 -36.749281 
L 300.163872 -36.749281 
L 297.823079 -36.749281 
L 295.482287 -36.749281 
L 293.141494 -36.749281 
L 290.800701 -36.749281 
L 288.459909 -36.749281 
L 286.119116 -36.749281 
L 283.778323 -36.749281 
L 281.437531 -36.749281 
L 279.096738 -36.749281 
L 276.755945 -36.749281 
L 274.415152 -36.749281 
L 272.07436 -36.749281 
L 269.733567 -36.749281 
L 267.392774 -36.749281 
L 265.051982 -36.749281 
L 262.711189 -36.749281 
L 260.370396 -36.749281 
L 258.029604 -36.749281 
L 255.688811 -36.749281 
L 253.348018 -36.749281 
L 251.007226 -36.749281 
L 248.666433 -36.749281 
L 246.32564 -36.749281 
L 243.984848 -36.749281 
L 241.644055 -36.749281 
L 239.303262 -36.749281 
L 236.962469 -36.749281 
L 234.621677 -36.749281 
L 232.280884 -36.749281 
L 229.940091 -36.749281 
L 227.599299 -36.749281 
L 225.258506 -36.749281 
L 222.917713 -36.749281 
L 220.576921 -36.749281 
L 218.236128 -36.749281 
L 215.895335 -36.749281 
L 213.554543 -36.749281 
L 211.21375 -36.749281 
L 208.872957 -36.749281 
L 206.532164 -36.749281 
L 204.191372 -36.749281 
L 201.850579 -36.749281 
L 199.509786 -36.749281 
L 197.168994 -36.749281 
L 194.828201 -36.749281 
L 192.487408 -36.749281 
L 190.146616 -36.749281 
L 187.805823 -36.749281 
L 185.46503 -36.749281 
L 183.124238 -36.749281 
L 180.783445 -36.749281 
L 178.442652 -36.749281 
L 176.101859 -36.749281 
L 173.761067 -36.749281 
L 171.420274 -36.749281 
L 169.079481 -36.749281 
L 166.738689 -36.749281 
L 164.397896 -36.749281 
L 162.057103 -36.749281 
L 159.716311 -36.749281 
L 157.375518 -36.749281 
L 155.034725 -36.749281 
L 152.693933 -36.749281 
L 150.35314 -36.749281 
L 148.012347 -36.749281 
L 145.671554 -36.749281 
L 143.330762 -36.749281 
L 140.989969 -36.749281 
L 138.649176 -36.749281 
L 136.308384 -36.749281 
L 133.967591 -36.749281 
L 131.626798 -36.749281 
L 129.286006 -36.749281 
L 126.945213 -36.749281 
L 124.60442 -36.749281 
L 122.263628 -36.749281 
L 119.922835 -36.749281 
L 117.582042 -36.749281 
L 115.24125 -36.749281 
L 112.900457 -36.749281 
L 110.559664 -36.749281 
L 108.218871 -36.749281 
L 105.878079 -36.749281 
L 103.537286 -36.749281 
L 101.196493 -36.749281 
L 98.855701 -36.749281 
L 96.514908 -36.749281 
L 94.174115 -36.749281 
L 91.833323 -36.749281 
L 89.49253 -36.749281 
L 87.151737 -36.749281 
L 84.810945 -36.749281 
L 82.470152 -36.749281 
L 80.129359 -36.749281 
L 77.788566 -36.749281 
L 75.447774 -36.749281 
L 73.106981 -36.749281 
L 70.766188 -36.749281 
L 68.425396 -36.749281 
L 66.084603 -36.749281 
L 63.74381 -36.749281 
L 61.403018 -36.749281 
L 59.062225 -36.749281 
L 56.721432 -36.749281 
L 54.38064 -36.749281 
L 52.039847 -36.749281 
L 49.699054 -36.749281 
L 47.358261 -36.749281 
L 45.017469 -36.749281 
L 42.676676 -36.749281 
L 40.335883 -36.749281 
L 37.995091 -36.749281 
L 35.654298 -36.749281 
L 33.313505 -36.749281 
L 30.972713 -36.749281 
L 28.63192 -36.749281 
L 26.291127 -36.749281 
z
" id="m3a36407578" style="stroke:#2a2eec;stroke-opacity:0;"/>
    </defs>
    <g clip-path="url(#pb9159b09ff)">
     <use style="fill:#2a2eec;fill-opacity:0;stroke:#2a2eec;stroke-opacity:0;" x="0" xlink:href="#m3a36407578" y="345.6"/>
    </g>
   </g>
   <g id="line2d_11">
    <path clip-path="url(#pb9159b09ff)" d="M 26.291127 308.757795 
L 49.699054 308.667518 
L 63.74381 308.42628 
L 73.106981 308.017286 
L 82.470152 307.329746 
L 91.833323 306.365815 
L 98.855701 305.36295 
L 103.537286 304.467275 
L 108.218871 303.31511 
L 112.900457 301.848712 
L 117.582042 300.029128 
L 122.263628 297.829243 
L 126.945213 295.232017 
L 131.626798 292.182216 
L 133.967591 290.461003 
L 136.308384 288.600735 
L 138.649176 286.573049 
L 140.989969 284.372015 
L 143.330762 281.981862 
L 145.671554 279.393115 
L 148.012347 276.596004 
L 150.35314 273.57869 
L 152.693933 270.346877 
L 155.034725 266.889549 
L 157.375518 263.217569 
L 162.057103 255.231599 
L 166.738689 246.41249 
L 171.420274 236.742084 
L 176.101859 226.245313 
L 180.783445 214.932167 
L 185.46503 202.882209 
L 190.146616 190.187777 
L 197.168994 170.273367 
L 206.532164 142.784522 
L 213.554543 122.253138 
L 218.236128 109.020966 
L 222.917713 96.366589 
L 227.599299 84.400711 
L 232.280884 73.228806 
L 236.962469 62.943521 
L 239.303262 58.210314 
L 241.644055 53.808977 
L 243.984848 49.768104 
L 246.32564 46.131077 
L 248.666433 42.938902 
L 251.007226 40.24413 
L 253.348018 38.065328 
L 255.688811 36.440159 
L 258.029604 35.362556 
L 260.370396 34.857406 
L 262.711189 34.91387 
L 265.051982 35.514226 
L 267.392774 36.618576 
L 269.733567 38.225661 
L 272.07436 40.288353 
L 274.415152 42.783338 
L 276.755945 45.698377 
L 279.096738 49.007822 
L 281.437531 52.692169 
L 283.778323 56.77032 
L 286.119116 61.236926 
L 288.459909 66.102672 
L 290.800701 71.354035 
L 293.141494 76.981807 
L 295.482287 82.966852 
L 300.163872 95.849688 
L 304.845457 109.539511 
L 318.890214 151.473497 
L 325.912592 171.696248 
L 332.93497 191.297188 
L 337.616555 203.909847 
L 342.298141 216.039524 
L 346.979726 227.532949 
L 351.661311 238.284019 
L 356.342897 248.171604 
L 358.683689 252.749917 
L 361.024482 257.081597 
L 363.365275 261.15428 
L 365.706067 264.961896 
L 368.04686 268.51426 
L 370.387653 271.804182 
L 372.728446 274.852282 
L 375.069238 277.664117 
L 377.410031 280.262198 
L 379.750824 282.658443 
L 382.091616 284.862479 
L 384.432409 286.899059 
L 389.113994 290.538152 
L 393.79558 293.688861 
L 398.477165 296.435231 
L 403.15875 298.828322 
L 407.840336 300.887248 
L 412.521921 302.617139 
L 417.203507 304.021014 
L 421.885092 305.139459 
L 426.566677 306.011936 
L 431.248263 306.690264 
L 438.270641 307.434195 
L 445.293019 307.939904 
L 454.65619 308.35137 
L 466.360153 308.599765 
L 487.427287 308.785135 
L 492.108873 308.795712 
L 492.108873 308.795712 
" style="fill:none;stroke:#2a2eec;stroke-linecap:round;stroke-width:1.5;"/>
   </g>
   <g id="line2d_12">
    <path clip-path="url(#pb9159b09ff)" d="M 161.310658 303.09686 
L 361.204372 303.09686 
" style="fill:none;stroke:#000000;stroke-width:3;"/>
   </g>
   <g id="patch_3">
    <path d="M 3.00024 322.550385 
L 515.39976 322.550385 
" style="fill:none;"/>
   </g>
   <g id="text_6">
    <!-- -1.9 -->
    <defs>
     <path d="M 4.890625 31.390625 
L 31.203125 31.390625 
L 31.203125 23.390625 
L 4.890625 23.390625 
z
" id="DejaVuSans-45"/>
     <path d="M 12.40625 8.296875 
L 28.515625 8.296875 
L 28.515625 63.921875 
L 10.984375 60.40625 
L 10.984375 69.390625 
L 28.421875 72.90625 
L 38.28125 72.90625 
L 38.28125 8.296875 
L 54.390625 8.296875 
L 54.390625 0 
L 12.40625 0 
z
" id="DejaVuSans-49"/>
     <path d="M 10.6875 12.40625 
L 21 12.40625 
L 21 0 
L 10.6875 0 
z
" id="DejaVuSans-46"/>
     <path d="M 10.984375 1.515625 
L 10.984375 10.5 
Q 14.703125 8.734375 18.5 7.8125 
Q 22.3125 6.890625 25.984375 6.890625 
Q 35.75 6.890625 40.890625 13.453125 
Q 46.046875 20.015625 46.78125 33.40625 
Q 43.953125 29.203125 39.59375 26.953125 
Q 35.25 24.703125 29.984375 24.703125 
Q 19.046875 24.703125 12.671875 31.3125 
Q 6.296875 37.9375 6.296875 49.421875 
Q 6.296875 60.640625 12.9375 67.421875 
Q 19.578125 74.21875 30.609375 74.21875 
Q 43.265625 74.21875 49.921875 64.515625 
Q 56.59375 54.828125 56.59375 36.375 
Q 56.59375 19.140625 48.40625 8.859375 
Q 40.234375 -1.421875 26.421875 -1.421875 
Q 22.703125 -1.421875 18.890625 -0.6875 
Q 15.09375 0.046875 10.984375 1.515625 
z
M 30.609375 32.421875 
Q 37.25 32.421875 41.125 36.953125 
Q 45.015625 41.5 45.015625 49.421875 
Q 45.015625 57.28125 41.125 61.84375 
Q 37.25 66.40625 30.609375 66.40625 
Q 23.96875 66.40625 20.09375 61.84375 
Q 16.21875 57.28125 16.21875 49.421875 
Q 16.21875 41.5 20.09375 36.953125 
Q 23.96875 32.421875 30.609375 32.421875 
z
" id="DejaVuSans-57"/>
    </defs>
    <g style="fill:#262626;" transform="translate(146.677455 288.712211)scale(0.15 -0.15)">
     <use xlink:href="#DejaVuSans-45"/>
     <use x="36.083984" xlink:href="#DejaVuSans-49"/>
     <use x="99.707031" xlink:href="#DejaVuSans-46"/>
     <use x="131.494141" xlink:href="#DejaVuSans-57"/>
    </g>
   </g>
   <g id="text_7">
    <!-- 1.9 -->
    <g style="fill:#262626;" transform="translate(349.277028 288.712211)scale(0.15 -0.15)">
     <use xlink:href="#DejaVuSans-49"/>
     <use x="63.623047" xlink:href="#DejaVuSans-46"/>
     <use x="95.410156" xlink:href="#DejaVuSans-57"/>
    </g>
   </g>
   <g id="text_8">
    <!-- 94% HPD -->
    <defs>
     <path d="M 72.703125 32.078125 
Q 68.453125 32.078125 66.03125 28.46875 
Q 63.625 24.859375 63.625 18.40625 
Q 63.625 12.0625 66.03125 8.421875 
Q 68.453125 4.78125 72.703125 4.78125 
Q 76.859375 4.78125 79.265625 8.421875 
Q 81.6875 12.0625 81.6875 18.40625 
Q 81.6875 24.8125 79.265625 28.4375 
Q 76.859375 32.078125 72.703125 32.078125 
z
M 72.703125 38.28125 
Q 80.421875 38.28125 84.953125 32.90625 
Q 89.5 27.546875 89.5 18.40625 
Q 89.5 9.28125 84.9375 3.921875 
Q 80.375 -1.421875 72.703125 -1.421875 
Q 64.890625 -1.421875 60.34375 3.921875 
Q 55.8125 9.28125 55.8125 18.40625 
Q 55.8125 27.59375 60.375 32.9375 
Q 64.9375 38.28125 72.703125 38.28125 
z
M 22.3125 68.015625 
Q 18.109375 68.015625 15.6875 64.375 
Q 13.28125 60.75 13.28125 54.390625 
Q 13.28125 47.953125 15.671875 44.328125 
Q 18.0625 40.71875 22.3125 40.71875 
Q 26.5625 40.71875 28.96875 44.328125 
Q 31.390625 47.953125 31.390625 54.390625 
Q 31.390625 60.6875 28.953125 64.34375 
Q 26.515625 68.015625 22.3125 68.015625 
z
M 66.40625 74.21875 
L 74.21875 74.21875 
L 28.609375 -1.421875 
L 20.796875 -1.421875 
z
M 22.3125 74.21875 
Q 30.03125 74.21875 34.609375 68.875 
Q 39.203125 63.53125 39.203125 54.390625 
Q 39.203125 45.171875 34.640625 39.84375 
Q 30.078125 34.515625 22.3125 34.515625 
Q 14.546875 34.515625 10.03125 39.859375 
Q 5.515625 45.21875 5.515625 54.390625 
Q 5.515625 63.484375 10.046875 68.84375 
Q 14.59375 74.21875 22.3125 74.21875 
z
" id="DejaVuSans-37"/>
     <path id="DejaVuSans-32"/>
     <path d="M 9.8125 72.90625 
L 19.671875 72.90625 
L 19.671875 43.015625 
L 55.515625 43.015625 
L 55.515625 72.90625 
L 65.375 72.90625 
L 65.375 0 
L 55.515625 0 
L 55.515625 34.71875 
L 19.671875 34.71875 
L 19.671875 0 
L 9.8125 0 
z
" id="DejaVuSans-72"/>
     <path d="M 19.671875 64.796875 
L 19.671875 37.40625 
L 32.078125 37.40625 
Q 38.96875 37.40625 42.71875 40.96875 
Q 46.484375 44.53125 46.484375 51.125 
Q 46.484375 57.671875 42.71875 61.234375 
Q 38.96875 64.796875 32.078125 64.796875 
z
M 9.8125 72.90625 
L 32.078125 72.90625 
Q 44.34375 72.90625 50.609375 67.359375 
Q 56.890625 61.8125 56.890625 51.125 
Q 56.890625 40.328125 50.609375 34.8125 
Q 44.34375 29.296875 32.078125 29.296875 
L 19.671875 29.296875 
L 19.671875 0 
L 9.8125 0 
z
" id="DejaVuSans-80"/>
     <path d="M 19.671875 64.796875 
L 19.671875 8.109375 
L 31.59375 8.109375 
Q 46.6875 8.109375 53.6875 14.9375 
Q 60.6875 21.78125 60.6875 36.53125 
Q 60.6875 51.171875 53.6875 57.984375 
Q 46.6875 64.796875 31.59375 64.796875 
z
M 9.8125 72.90625 
L 30.078125 72.90625 
Q 51.265625 72.90625 61.171875 64.09375 
Q 71.09375 55.28125 71.09375 36.53125 
Q 71.09375 17.671875 61.125 8.828125 
Q 51.171875 0 30.078125 0 
L 9.8125 0 
z
" id="DejaVuSans-68"/>
    </defs>
    <g style="fill:#262626;" transform="translate(226.266499 222.542826)scale(0.15 -0.15)">
     <use xlink:href="#DejaVuSans-57"/>
     <use x="63.623047" xlink:href="#DejaVuSans-52"/>
     <use x="127.246094" xlink:href="#DejaVuSans-37"/>
     <use x="222.265625" xlink:href="#DejaVuSans-32"/>
     <use x="254.052734" xlink:href="#DejaVuSans-72"/>
     <use x="329.248047" xlink:href="#DejaVuSans-80"/>
     <use x="389.550781" xlink:href="#DejaVuSans-68"/>
    </g>
   </g>
   <g id="text_9">
    <!-- mean=-0.00029 -->
    <defs>
     <path d="M 52 44.1875 
Q 55.375 50.25 60.0625 53.125 
Q 64.75 56 71.09375 56 
Q 79.640625 56 84.28125 50.015625 
Q 88.921875 44.046875 88.921875 33.015625 
L 88.921875 0 
L 79.890625 0 
L 79.890625 32.71875 
Q 79.890625 40.578125 77.09375 44.375 
Q 74.3125 48.1875 68.609375 48.1875 
Q 61.625 48.1875 57.5625 43.546875 
Q 53.515625 38.921875 53.515625 30.90625 
L 53.515625 0 
L 44.484375 0 
L 44.484375 32.71875 
Q 44.484375 40.625 41.703125 44.40625 
Q 38.921875 48.1875 33.109375 48.1875 
Q 26.21875 48.1875 22.15625 43.53125 
Q 18.109375 38.875 18.109375 30.90625 
L 18.109375 0 
L 9.078125 0 
L 9.078125 54.6875 
L 18.109375 54.6875 
L 18.109375 46.1875 
Q 21.1875 51.21875 25.484375 53.609375 
Q 29.78125 56 35.6875 56 
Q 41.65625 56 45.828125 52.96875 
Q 50 49.953125 52 44.1875 
z
" id="DejaVuSans-109"/>
     <path d="M 56.203125 29.59375 
L 56.203125 25.203125 
L 14.890625 25.203125 
Q 15.484375 15.921875 20.484375 11.0625 
Q 25.484375 6.203125 34.421875 6.203125 
Q 39.59375 6.203125 44.453125 7.46875 
Q 49.3125 8.734375 54.109375 11.28125 
L 54.109375 2.78125 
Q 49.265625 0.734375 44.1875 -0.34375 
Q 39.109375 -1.421875 33.890625 -1.421875 
Q 20.796875 -1.421875 13.15625 6.1875 
Q 5.515625 13.8125 5.515625 26.8125 
Q 5.515625 40.234375 12.765625 48.109375 
Q 20.015625 56 32.328125 56 
Q 43.359375 56 49.78125 48.890625 
Q 56.203125 41.796875 56.203125 29.59375 
z
M 47.21875 32.234375 
Q 47.125 39.59375 43.09375 43.984375 
Q 39.0625 48.390625 32.421875 48.390625 
Q 24.90625 48.390625 20.390625 44.140625 
Q 15.875 39.890625 15.1875 32.171875 
z
" id="DejaVuSans-101"/>
     <path d="M 34.28125 27.484375 
Q 23.390625 27.484375 19.1875 25 
Q 14.984375 22.515625 14.984375 16.5 
Q 14.984375 11.71875 18.140625 8.90625 
Q 21.296875 6.109375 26.703125 6.109375 
Q 34.1875 6.109375 38.703125 11.40625 
Q 43.21875 16.703125 43.21875 25.484375 
L 43.21875 27.484375 
z
M 52.203125 31.203125 
L 52.203125 0 
L 43.21875 0 
L 43.21875 8.296875 
Q 40.140625 3.328125 35.546875 0.953125 
Q 30.953125 -1.421875 24.3125 -1.421875 
Q 15.921875 -1.421875 10.953125 3.296875 
Q 6 8.015625 6 15.921875 
Q 6 25.140625 12.171875 29.828125 
Q 18.359375 34.515625 30.609375 34.515625 
L 43.21875 34.515625 
L 43.21875 35.40625 
Q 43.21875 41.609375 39.140625 45 
Q 35.0625 48.390625 27.6875 48.390625 
Q 23 48.390625 18.546875 47.265625 
Q 14.109375 46.140625 10.015625 43.890625 
L 10.015625 52.203125 
Q 14.9375 54.109375 19.578125 55.046875 
Q 24.21875 56 28.609375 56 
Q 40.484375 56 46.34375 49.84375 
Q 52.203125 43.703125 52.203125 31.203125 
z
" id="DejaVuSans-97"/>
     <path d="M 54.890625 33.015625 
L 54.890625 0 
L 45.90625 0 
L 45.90625 32.71875 
Q 45.90625 40.484375 42.875 44.328125 
Q 39.84375 48.1875 33.796875 48.1875 
Q 26.515625 48.1875 22.3125 43.546875 
Q 18.109375 38.921875 18.109375 30.90625 
L 18.109375 0 
L 9.078125 0 
L 9.078125 54.6875 
L 18.109375 54.6875 
L 18.109375 46.1875 
Q 21.34375 51.125 25.703125 53.5625 
Q 30.078125 56 35.796875 56 
Q 45.21875 56 50.046875 50.171875 
Q 54.890625 44.34375 54.890625 33.015625 
z
" id="DejaVuSans-110"/>
     <path d="M 10.59375 45.40625 
L 73.1875 45.40625 
L 73.1875 37.203125 
L 10.59375 37.203125 
z
M 10.59375 25.484375 
L 73.1875 25.484375 
L 73.1875 17.1875 
L 10.59375 17.1875 
z
" id="DejaVuSans-61"/>
    </defs>
    <g style="fill:#262626;" transform="translate(198.833584 78.696336)scale(0.15 -0.15)">
     <use xlink:href="#DejaVuSans-109"/>
     <use x="97.412109" xlink:href="#DejaVuSans-101"/>
     <use x="158.935547" xlink:href="#DejaVuSans-97"/>
     <use x="220.214844" xlink:href="#DejaVuSans-110"/>
     <use x="283.59375" xlink:href="#DejaVuSans-61"/>
     <use x="367.382812" xlink:href="#DejaVuSans-45"/>
     <use x="403.466797" xlink:href="#DejaVuSans-48"/>
     <use x="467.089844" xlink:href="#DejaVuSans-46"/>
     <use x="498.876953" xlink:href="#DejaVuSans-48"/>
     <use x="562.5" xlink:href="#DejaVuSans-48"/>
     <use x="626.123047" xlink:href="#DejaVuSans-48"/>
     <use x="689.746094" xlink:href="#DejaVuSans-50"/>
     <use x="753.369141" xlink:href="#DejaVuSans-57"/>
    </g>
   </g>
   <g id="text_10">
    <!-- x -->
    <defs>
     <path d="M 54.890625 54.6875 
L 35.109375 28.078125 
L 55.90625 0 
L 45.3125 0 
L 29.390625 21.484375 
L 13.484375 0 
L 2.875 0 
L 24.125 28.609375 
L 4.6875 54.6875 
L 15.28125 54.6875 
L 29.78125 35.203125 
L 44.28125 54.6875 
z
" id="DejaVuSans-120"/>
    </defs>
    <g style="fill:#262626;" transform="translate(254.465 15.15774)scale(0.16 -0.16)">
     <use xlink:href="#DejaVuSans-120"/>
    </g>
   </g>
  </g>
 </g>
 <defs>
  <clipPath id="pb9159b09ff">
   <rect height="301.392645" width="512.39952" x="3.00024" y="21.15774"/>
  </clipPath>
 </defs>
</svg>
